<?xml version="1.0" encoding="UTF-8" standalone="no"?>
<!-- Created with Inkscape (http://www.inkscape.org/) -->

<svg
   width="512mm"
   height="512mm"
   viewBox="0 0 512 512"
   version="1.1"
   id="svg5"
   inkscape:version="1.1.2 (0a00cf5339, 2022-02-04)"
   sodipodi:docname="logo.svg"
   inkscape:export-filename="/home/farrell/gitprojects/snipgenie/svg/bar.png"
   inkscape:export-xdpi="25.4"
   inkscape:export-ydpi="25.4"
   xmlns:inkscape="http://www.inkscape.org/namespaces/inkscape"
   xmlns:sodipodi="http://sodipodi.sourceforge.net/DTD/sodipodi-0.dtd"
   xmlns="http://www.w3.org/2000/svg"
   xmlns:svg="http://www.w3.org/2000/svg">
  <sodipodi:namedview
     id="namedview7"
     pagecolor="#ffffff"
     bordercolor="#999999"
     borderopacity="1"
     inkscape:pageshadow="0"
     inkscape:pageopacity="0"
     inkscape:pagecheckerboard="0"
     inkscape:document-units="mm"
     showgrid="false"
     width="209mm"
     inkscape:zoom="0.22897889"
     inkscape:cx="670.36747"
     inkscape:cy="1229.371"
     inkscape:window-width="2560"
     inkscape:window-height="1300"
     inkscape:window-x="0"
     inkscape:window-y="0"
     inkscape:window-maximized="1"
     inkscape:current-layer="layer1" />
  <defs
     id="defs2">
    <inkscape:path-effect
       effect="simplify"
       id="path-effect1348"
       is_visible="true"
       lpeversion="1"
       steps="1"
       threshold="0.000408163"
       smooth_angles="360"
       helper_size="0"
       simplify_individual_paths="false"
       simplify_just_coalesce="false" />
  </defs>
  <g
     inkscape:label="Layer 1"
     inkscape:groupmode="layer"
     id="layer1">
    <path
       style="fill:#52b654;fill-opacity:1;stroke:#000000;stroke-width:9.265;stroke-linecap:butt;stroke-linejoin:miter;stroke-miterlimit:4;stroke-dasharray:none;stroke-opacity:1"
       d="m 198.68899,106.77348 c 5.43045,1.82306 11.21139,0.78571 16.78638,0.50447 4.13373,-0.20853 8.57631,0.2085 12.02081,2.79414 2.31524,1.73795 3.72276,4.67445 3.61144,7.5534 -0.0559,1.44497 -0.7895,3.93023 -2.21823,3.51999 -1.22195,-0.35087 -2.32286,0.11643 -3.35833,0.80474 -2.6028,1.73015 -4.96419,3.82835 -7.92713,5.02397 -3.94694,1.59269 -8.26502,2.27351 -11.9756,4.42287 -2.91164,1.68657 -5.95935,3.98135 -6.87824,7.18149 -0.39183,1.36459 0.7372,2.57014 1.60183,3.46983 1.68544,1.7538 5.13579,2.17724 5.66951,4.53284 0.56268,2.48341 -0.7203,4.92063 -2.07757,6.90824 -1.8075,2.64694 -3.47538,6.35823 -6.63996,6.91355 -1.32408,0.23235 -2.68588,-0.18545 -3.97815,-0.47255 -3.21748,-0.71481 -6.2752,-2.20246 -9.54719,-2.56163 -1.50559,-0.16527 -2.97571,0.53137 -4.50142,-0.0328 -1.50973,-0.55824 -4.86375,-0.1887 -4.50721,-1.76454 0.10004,-0.44216 2.65217,-0.14481 1.27491,-1.0228 -2.21344,-1.41104 -4.79979,-2.03218 -7.32407,-2.58774 -1.90131,-0.41845 -3.4084,1.16174 -4.53987,2.46164 -2.33681,2.68466 -4.1809,6.0364 -7.44854,7.70727 -1.86475,0.95352 -4.49862,1.18805 -6.03077,-0.26368 -1.53947,-1.45866 -1.68232,-3.73116 -1.92839,-5.71235 -0.35553,-2.86252 -0.45444,-5.82985 -1.67229,-8.52442 -0.76095,-1.68365 -2.90488,-0.84682 -4.17666,-1.84004 -0.76313,-0.59598 -3.33596,-1.47204 -2.43856,-2.24685 0.64389,-0.55593 -1.19976,-0.86997 -1.66461,-1.04403 -3.52979,-1.32173 -7.39561,-0.39712 -10.84949,0.6959 -6.15982,1.94934 -11.79142,5.21433 -17.85203,7.41092 -4.73247,1.71522 -9.81657,0.71779 -14.715387,0.77002 -2.171268,0.0232 -4.661979,-0.31909 -6.459905,0.94422 -1.628932,1.14457 -2.637414,3.1676 -2.681858,5.10565 -0.199247,8.68847 -0.778037,17.36931 -0.743116,26.06242 0.02078,5.17322 -0.0281,10.38643 0.808666,15.50735 0.234325,1.43404 0.787476,2.78161 1.723235,3.93886 1.240059,1.53358 2.419983,3.69321 4.455219,3.95934 3.147808,0.41161 6.338727,0.14183 9.504026,0.25773 3.11546,0.11408 6.24365,0.37482 9.30923,1.13058 1.35037,0.33291 2.21305,1.88413 1.31206,3.10145 -0.67637,0.91383 -2.43639,1.33704 -2.36434,2.47412 0.0623,0.9831 -0.44456,1.9904 -1.25532,2.69125 -2.1868,1.89034 -5.27186,1.97109 -8.01607,1.97932 -3.416769,0.0103 -6.856379,-0.63661 -10.256105,-0.11096 -1.876151,0.29008 -3.739701,1.66783 -3.917689,3.70118 -0.132293,1.51133 -0.374826,3.26941 -1.796163,4.12525 -1.222398,0.73605 -1.817057,2.12124 -1.7354,3.55236 0.123995,2.17313 0.993713,4.52293 -0.144224,6.57735 -0.614121,1.10873 -2.179676,0.76715 -3.299789,0.89088 -5.584239,0.61683 -11.504633,-0.11423 -16.748069,1.90587 -0.995189,0.38341 -1.660774,1.37481 -2.210515,2.2508 -2.533817,4.03753 -4.015534,8.67859 -4.792625,13.34542 -0.571175,3.4302 -1.10782,7.04271 -0.156311,10.44833 0.762292,2.72838 3.209103,4.5942 5.832474,5.41884 5.541206,1.74185 11.582247,0.42416 17.094039,2.11387 2.502133,0.76706 4.911409,1.8572 7.186963,3.13893 1.933567,1.0891 3.96879,2.33926 4.9199,4.49481 1.039884,2.35674 1.16459,5.23852 3.015858,7.13638 1.398014,1.4332 3.593389,1.24983 5.422414,1.20215 2.827452,-0.0737 5.648012,-0.93092 8.461322,-0.58275 10.46288,1.29485 21.03299,1.42579 31.55122,1.1323 4.94779,-0.13806 9.92265,-0.54063 14.8561,-0.006 1.13987,0.12359 2.96891,0.32288 2.80891,1.91207 -0.26971,2.67895 -1.83166,5.49852 -4.48308,6.40915 -3.80498,1.30682 -7.76997,-0.67217 -11.63109,0.13748 -1.97975,0.41514 -3.34202,2.14864 -3.84182,4.09962 -0.5077,1.98181 -0.0557,4.36997 -1.44492,6.00169 -1.30046,1.52746 -3.28551,2.35807 -4.18602,4.30559 -1.84721,3.99495 -5.10794,7.57601 -5.58159,11.97455 -0.15072,1.39967 1.83102,2.0035 1.81583,3.23854 -0.0241,1.95701 -1.74772,3.26166 -3.13141,4.39159 -1.24061,1.01309 -2.70716,2.10511 -2.88939,3.80143 -0.14997,1.39606 -0.96404,2.46255 -2.02454,3.37632 -5.45844,4.70322 -10.44358,10.19927 -16.78913,13.60902 -1.16497,0.62599 -2.5884,0.56446 -3.641294,1.51486 -3.746684,3.38196 -8.263491,6.35767 -10.542107,10.8569 -0.43884,0.86651 -2.788786,2.40708 -1.343176,2.89292 2.021599,0.67942 4.214041,0.45297 6.295421,0.26222 3.852094,-0.35302 7.725036,-0.10433 11.581776,0.0322 10.70058,0.37872 21.48651,1.22058 32.13573,-0.28126 3.02507,-0.42662 6.07489,-0.88444 8.96729,-1.85735 1.29439,-0.43539 3.47079,-0.54623 3.64073,-1.99212 0.16245,-1.38215 -2.0679,-0.51662 -2.81831,-0.29124 -3.01738,0.90626 -6.03419,1.9078 -8.84737,3.32893 -3.44252,1.73905 -6.47974,4.85951 -10.42138,5.09545 -1.66961,0.0999 -3.36065,-0.48467 -5.00752,0.25529 -3.77192,1.69478 -7.66341,3.28634 -11.00979,5.71673 -3.37751,2.453 -5.27041,6.67982 -9.09265,8.50657 -3.255313,1.5558 -6.966778,0.64557 -10.422761,1.01392 -1.391289,0.14829 -3.057261,0.0619 -4.098733,1.08755 -1.071454,1.05519 -1.727878,2.51528 -3.240815,3.13913 -2.794028,1.1521 -6.05883,0.68834 -8.726855,2.09194 -3.335308,1.75465 -5.936311,4.55548 -8.941251,6.78777 -1.95845,1.45488 -4.288985,2.49204 -6.805906,2.41126 -2.645348,-0.0849 -5.286881,-0.50385 -7.942345,0.0819 -2.940745,0.64871 -6.062359,0.75898 -8.815577,1.97917 -1.329693,0.5893 -1.669784,2.34586 -3.281623,2.6309 -3.473121,0.6142 -7.321784,-0.60532 -10.518062,0.85999 -1.280225,0.58691 -1.710905,2.1597 -1.809736,3.41875 -0.09898,1.26098 -0.576341,2.30985 -1.402988,3.33121 -0.808489,0.99892 -2.149439,2.90995 -0.691768,3.82647 1.344751,0.84552 2.973005,1.10102 4.513769,1.35726 7.486858,1.24514 15.080223,0.34708 22.617483,0.34136 10.390465,-0.008 20.791721,0.44841 31.17163,-0.0119 1.821249,-0.0808 3.908034,-0.76817 5.508842,0.27153 1.19509,0.77619 0.924924,2.71139 0.07875,3.56799 -1.310223,1.32637 -3.335864,0.39551 -4.93517,0.822 -1.809711,0.4826 -2.333695,2.64995 -3.856596,3.54444 -2.345135,1.37744 -5.508154,1.01635 -7.585478,2.7701 -1.137133,0.96001 -1.74388,2.61096 -3.393097,2.91802 -2.33039,0.43388 -4.866876,-0.12001 -7.026978,1.17473 -3.769065,2.25914 -6.56098,5.7001 -9.664003,8.74296 -1.040239,1.02007 -2.81749,1.96985 -2.551452,3.63873 0.362742,2.27552 1.296819,4.4141 2.187532,6.52284 0.720248,1.70517 0.968361,3.54293 1.423317,5.33318 0.330758,1.30153 0.757547,2.93125 1.979185,3.48733 1.018274,0.46351 2.175462,-0.38355 3.170281,0.80729 0.821111,0.9829 1.698807,2.0159 3.113964,2.17011 4.076655,0.44423 8.192314,0.0815 12.261591,-0.26092 5.712786,-0.48065 11.415809,-1.1442 17.055807,-2.17818 2.783291,-0.51026 5.089397,-2.23068 7.353815,-3.85925 0.980488,-0.70517 2.608198,-0.71811 3.109438,-1.8752 0.30451,-0.70295 -1.5149,-0.0793 -1.97089,0.14899 -4.020451,2.01236 -5.819038,6.62118 -9.557832,8.96443 -2.332782,1.46205 -5.456911,1.00766 -7.536811,3.02335 -2.794625,2.70835 -5.129893,5.97006 -6.546547,9.58541 -0.702651,1.79319 -1.477551,3.84837 -0.745147,5.74735 0.532771,1.38137 2.279951,1.05148 3.458088,1.08739 2.959225,0.0902 6.072754,0.66699 8.890534,-0.28891 1.094868,-0.37142 2.041055,-0.88056 2.88877,-1.87609 1.088053,-1.27778 2.621966,-2.16623 4.332729,-2.36083 2.0568,-0.23396 4.173726,-0.16662 6.132716,-1.04023 2.62514,-1.17067 5.16794,-2.49157 7.92323,-3.45093 1.50214,-0.52303 2.43664,0.85775 1.55518,2.26324 -1.77012,2.82247 -4.31119,5.04759 -6.64685,7.38688 -2.24056,2.24404 -4.51355,4.46032 -6.622413,6.8444 -1.309814,1.48075 1.074285,1.51598 2.083443,1.63645 2.38841,0.28511 5.11305,-0.6634 7.19332,0.54325 1.00315,0.58187 1.63997,1.95757 2.86459,2.20892 2.49614,0.51233 5.08059,0.36601 7.60815,0.22247 1.41996,-0.0806 3.00525,-0.0665 4.10959,-1.03085 0.77782,-0.67925 1.7994,-0.47769 2.72863,-0.37602 2.92888,0.32046 5.72676,-0.83756 8.42287,-1.80545 3.45664,-1.24092 6.66273,-3.38593 10.29649,-3.91746 1.41583,-0.2071 2.80565,0.20014 4.25747,-0.12589 6.485,-1.45631 12.64387,-4.04835 19.04931,-5.8105 3.82992,-1.05362 7.90853,-0.58325 11.6932,-2.05451 1.2827,-0.49864 1.54889,-2.46347 3.08869,-2.44666 1.19098,0.013 2.36675,0.20878 3.56705,0.20072 4.01807,-0.027 8.04038,0.11321 12.05445,-0.0728 4.8871,-0.22651 9.68437,-1.50768 14.15058,-3.40861 5.57494,-2.37283 10.32259,-6.23164 15.05803,-9.936 3.98085,-3.11407 7.74556,-6.58068 12.15367,-9.08272 3.30865,-1.87799 7.96061,-0.59496 10.68759,-3.26693 0.95233,-0.93312 1.63359,-2.14078 3.09535,-2.51306 2.2719,-0.5786 5.11771,0.66766 6.93563,-0.92989 0.99751,-0.87659 1.59152,-2.70745 3.28757,-2.1029 1.40591,0.50113 2.67048,-0.38269 3.62972,-1.32245 2.12084,-2.07777 3.22757,-5.14859 5.94957,-6.60346 3.91213,-2.09098 8.514,-1.80291 12.7447,-2.73383 1.85566,-0.40832 4.12805,-0.51271 5.37807,-2.0704 1.26901,-1.58136 0.27443,-3.61919 0.35966,-5.42458 0.0828,-1.75478 1.24231,-3.20938 2.23099,-4.56243 2.12396,-2.90673 4.31304,-5.99803 7.45925,-7.82409 2.54389,-1.47647 5.49053,-1.95404 8.40977,-2.10229 2.13418,-0.10838 4.41491,0.12482 6.38416,-0.74298 1.78213,-0.78534 3.17315,-2.29005 5.17737,-2.6738 6.92459,-1.32585 13.88765,0.98749 20.85855,0.0481 4.19768,-0.56568 8.35366,-1.31543 12.49228,-2.35077 4.59817,-1.1503 9.41151,1.89647 13.85132,0.2532 1.18672,-0.43923 1.69516,-1.97381 2.84326,-2.47691 2.30139,-1.00847 4.90263,-0.564 7.30674,-0.23355 2.70767,0.37217 5.3513,1.30573 8.09059,1.32731 6.23341,0.0491 12.47192,0.0839 18.70395,-0.27689 0.84298,-0.0488 3.75996,-0.80329 2.07864,-1.52372 -1.2544,-0.5375 -2.3765,-0.90412 -3.35158,-2.04786 -2.97414,-3.48859 -6.36683,-6.70588 -8.70026,-10.65496 -0.73597,-1.24555 0.64071,-2.5569 1.35196,-3.4846 2.76594,-3.6077 6.14789,-6.70212 8.86088,-10.34698 1.01708,-1.36643 0.85415,-3.1805 1.89505,-4.58996 2.75635,-3.73232 7.82292,-5.38534 9.81064,-9.66577 0.89506,-1.92745 2.06116,-3.79424 2.49192,-5.87211 0.63782,-3.0767 0.26344,-6.24738 0.0673,-9.35152 -0.25936,-4.10434 -0.96677,-8.23688 -0.48729,-12.33966 0.46523,-3.98087 2.9878,-7.27518 5.46677,-10.27917 1.95834,-2.3731 4.02419,-4.82393 4.79807,-7.89066 1.37847,-5.46263 1.77867,-11.12417 1.82717,-16.73653 0.0369,-4.26656 0.0946,-8.57686 -0.67408,-12.78644 -0.41127,-2.25238 -2.65543,-3.82499 -2.48497,-6.25816 0.10477,-1.49553 0.47566,-3.00326 -0.0252,-4.5113 -0.97877,-2.94694 -1.21903,-6.36201 -3.26845,-8.7397 -1.18868,-1.37908 -3.1822,-1.42555 -4.84549,-1.72519 -1.75656,-0.31644 -4.075,-0.4949 -4.90647,-2.29159 -0.70794,-1.52976 -0.93976,-3.81169 0.64811,-4.82821 1.23284,-0.78924 1.93311,-2.08885 2.45145,-3.43197 0.83237,-2.15683 0.79925,-4.72008 2.18662,-6.58206 1.06112,-1.42412 3.21226,-2.00141 3.49899,-3.98086 0.44218,-3.0526 -0.2896,-6.15552 -0.0954,-9.22613 0.0943,-1.49095 -1.86358,-1.65188 -2.25039,-2.798 -0.62597,-1.85477 -0.75321,-3.85505 -0.97375,-5.79542 -0.35851,-3.1542 0.1159,-6.69845 -1.5884,-9.406 -0.81708,-1.29806 -3.05157,-1.52685 -3.2356,-3.11055 -0.58804,-5.06061 -0.44199,-10.24745 -1.7313,-15.19427 -0.4679,-1.79524 -1.70288,-3.27317 -2.89052,-4.64229 -1.25173,-1.44301 -2.56231,-2.86617 -4.35921,-3.69647 -3.18548,-1.47193 -6.67951,-2.44045 -9.44851,-4.70523 -1.33211,-1.08954 -1.81894,-3.02537 -1.05304,-4.59316 1.12723,-2.30741 2.18617,-5.40643 4.74272,-6.05939 1.82434,-0.46595 3.74992,-0.44792 5.61969,-0.37037 1.3729,0.0569 2.7941,0.77987 4.1164,0.37037 1.30638,-0.40457 2.46477,0.56011 3.04154,1.65538 0.55624,1.05629 1.44408,1.86004 2.7132,2.08478 5.65056,1.00061 11.34221,2.04954 17.08104,2.12704 1.47287,0.0199 3.1431,0.30622 4.36209,-0.77073 2.1947,-1.93896 3.02107,-4.90748 3.75192,-7.6332 1.32057,-4.92511 1.75658,-10.08611 3.57423,-14.8725 1.31396,-3.46004 4.58497,-5.61032 7.82255,-7.12285 2.04667,-0.95616 4.53872,-1.3434 6.08485,-3.00442 0.85901,-0.92284 1.54064,-2.00822 2.9137,-2.37575 4.22469,-1.13084 8.53567,-1.88287 12.77652,-2.96714 1.40449,-0.35909 1.26668,-2.09775 1.26241,-3.241 -0.008,-2.15647 -0.39936,-4.28844 -0.11804,-6.46254 0.50756,-3.92259 1.18074,-7.77426 2.25472,-11.67762 0.70112,-2.54822 -1.20688,-5.27688 -0.0747,-7.70033 0.64917,-1.38954 2.15895,-2.30466 2.30019,-3.96367 0.2365,-2.77796 0.64236,-5.68788 -0.15831,-8.35521 -0.44815,-1.49296 -2.08426,-2.24891 -3.4566,-2.4888 -1.31496,-0.22986 -1.90342,-1.43392 -2.8375,-2.27151 -0.92743,-0.83163 -2.30279,-0.69023 -3.4583,-0.68385 -7.0136,0.0387 -13.98716,0.84895 -20.9976,1.08718 -1.13822,0.0387 -2.28596,-0.17169 -2.72309,-1.50158 -0.90347,-2.748627 0.37438,-5.559658 1.50691,-8.032081 1.31386,-2.86829 3.04457,-5.917969 2.4677,-9.177299 -0.22398,-1.265496 -0.77251,-2.82745 -2.27755,-3.03197 -1.28347,-0.174411 -3.00288,0.814883 -3.89406,-0.25563 -1.85216,-2.224874 -4.09547,-4.293296 -5.17343,-6.97975 -0.75343,-1.877678 0.80675,-3.90379 -0.16877,-5.780046 -1.39867,-2.690129 -3.38988,-5.07483 -4.04725,-8.168868 -0.30586,-1.439597 0.25407,-2.810985 0.83559,-4.123207 0.64751,-1.461122 1.80342,-3.219032 0.91994,-4.798959 -1.18371,-2.116826 -3.50896,-3.115857 -5.69356,-3.859531 -2.16463,-0.736876 -4.16323,-2.002017 -5.52665,-3.898875 -1.87358,-2.606614 -2.78277,-6.208129 -5.7994,-7.737656 -1.44689,-0.73362 -3.17706,-0.473561 -4.67487,-0.124527 -1.28345,0.299082 -1.95771,-0.56468 -3.23282,-1.135212 -2.30215,-1.030066 -4.9212,-0.522264 -7.3194,-0.163454 -3.12214,0.467122 -6.15348,1.573831 -9.36651,1.430146 -3.65746,-0.16356 -7.37975,-1.251916 -11.01173,-0.313902 -2.03538,0.525668 -3.2551,2.525343 -5.37253,2.943974 -5.32522,1.052831 -10.77986,1.128659 -16.11954,2.177028 -1.94061,0.381011 -3.32724,1.854401 -4.82381,3.018432 -1.79749,1.398087 -3.53991,3.085232 -5.74129,3.713283 -2.16867,0.618718 -4.94731,-0.5644 -6.64573,1.102871 -0.85473,0.839056 -1.39708,2.061823 -2.75869,2.300236 -3.52554,0.617312 -7.21091,0.770131 -10.69808,-0.02858 -1.50849,-0.345511 -3.97018,-0.49388 -4.15144,-2.154923 -0.13357,-1.223994 -1.07194,-2.769831 -0.25632,-3.764574 1.41457,-1.725242 3.21159,-3.098192 4.85938,-4.594557 2.47999,-2.252087 5.24302,-4.263819 7.29419,-6.924648 0.9072,-1.176845 -0.63776,-2.333266 -1.48386,-2.979678 -2.18247,-1.667377 -4.91506,-2.471419 -7.09365,-4.118139 -2.2102,-1.670611 -2.76997,-5.11755 -5.42768,-6.109498 -1.18348,-0.441716 -2.65932,-0.228273 -3.64979,-1.010413 -0.9427,-0.744421 -2.00139,-1.593226 -3.24606,-1.642569 -1.21138,-0.04802 -2.58574,-0.142717 -3.5251,0.816149 -0.95142,0.971181 -1.89559,1.979832 -3.26542,2.436299 -4.05062,1.349785 -8.36316,2.276521 -11.96584,4.584983 -1.43834,0.921634 -2.26258,2.827655 -3.94419,3.230597 -1.767,0.423402 -3.54791,-0.32858 -5.34392,0.130675 -3.55268,0.908449 -6.93702,2.830628 -10.71598,2.636744 -1.61735,-0.08298 -2.85343,-1.19151 -3.97231,-2.229121 -1.04032,-0.964755 -2.60472,-0.860696 -3.7809,-0.162977 -3.09515,1.83606 -4.73419,5.187585 -6.79137,7.996559 -1.34578,1.83759 -3.26782,3.496813 -5.7163,3.518343 -2.71589,0.02388 -5.39857,-0.815198 -8.14325,-0.02751 -6.4241,1.843624 -13.69011,-1.96562 -19.6354,0.947304 -1.43708,0.704105 -2.06243,2.333892 -2.78874,3.661724 -0.96609,1.766189 -2.29566,3.305934 -3.52024,4.899109 -0.89382,1.162858 -3.57626,4.651111 -2.69961,3.475206 1.14294,-1.533095 1.96677,-3.608765 3.72519,-4.376773 0.95067,-0.415214 -0.0597,1.372301 -0.2521,1.741508 -1.30104,2.497347 -2.32451,5.254592 -4.28095,7.292292 -0.83887,0.873712 -1.54602,1.842703 -1.98479,3.003176 -0.48142,1.273267 -0.91475,2.594488 -0.60711,4.005169 0.47972,2.199719 2.15039,4.430517 1.35809,6.652473 -0.64532,1.809751 -1.83544,3.37976 -3.01258,4.876011 -2.98696,3.796684 -6.17193,7.573273 -10.1726,10.307062 -3.45268,2.359327 -7.48026,3.635062 -11.25885,5.358268 -4.14519,1.890393 -8.99698,4.136859 -10.56635,8.565766 -0.52105,1.47045 1.48523,1.9152 2.52993,2.07843 3.54784,0.55432 7.15713,0.12527 10.7285,0.21006 0.77083,0.0183 2.54154,-1.71866 2.33425,-1.07901 -0.57428,1.7721 -1.58265,3.35507 -2.37265,5.03113 z"
       id="path1346"
       inkscape:path-effect="#path-effect1348"
       inkscape:original-d="m 198.68899,106.77348 c 9.86698,3.39565 22.29041,-3.34119 29.90954,4.27794 1.99902,1.99901 4.24518,7.7891 0.51187,10.00903 -0.56171,0.33401 -1.36311,-0.26487 -1.96054,0 -2.97437,1.3187 -5.33124,4.23882 -8.71563,5.59004 -8.98466,3.58712 -13.81506,2.72649 -19.55063,11.66558 -1.74752,2.72356 7.05371,7.96284 7.13783,8.26515 1.20073,4.3153 -5.20896,11.48238 -8.71753,13.82179 -0.94445,0.62972 -11.91574,-2.48459 -12.98434,-2.89737 -1.41038,-0.54481 -3.10149,0.47812 -4.53586,0 -11.15763,-3.71921 0.35446,-0.89517 -4.62197,-3.46648 -1.6444,-0.84966 -4.58401,-1.47118 -6.18728,-2.00561 -5.4469,-1.81563 -8.60672,13.65604 -17.49375,10.28828 -4.65734,-1.76491 -0.91079,-14.63121 -6.54302,-16.53244 -0.63589,-0.21466 -1.42151,0.31632 -2.01343,0 -6.28906,-3.3609 1.3269,-1.47522 -4.62197,-3.46648 -7.84609,-2.62632 -22.17008,6.58218 -29.22075,8.61341 -6.34215,1.82711 -13.587948,-0.68709 -19.630393,1.15549 -1.852698,0.56496 -3.192627,3.88096 -3.192627,5.48904 0,6.70993 -2.283113,40.24423 1.155494,44.54249 1.361096,1.70137 2.675633,3.64267 4.621969,4.62197 2.444909,1.23015 24.829757,-1.55743 20.407937,4.93524 l -2.28207,2.28207 c 0,0.3542 0.15841,0.7458 0,1.06261 -3.20752,6.41482 -16.390298,1.59758 -20.90486,3.85486 -3.387889,1.69394 -1.891609,3.82962 -3.118009,6.18193 -0.503637,0.966 -1.693844,1.41324 -2.310984,2.31098 -1.706409,2.48228 1.35056,6.61131 -1.074531,9.56709 -0.05539,0.0675 -19.4999,1.96941 -19.953044,2.31098 -4.620199,3.48261 -8.903372,19.84218 -6.813484,26.11183 2.957761,8.8733 17.570505,5.134 24.212724,7.81624 2.52244,1.01859 8.303488,3.5151 9.950395,5.71328 1.84962,2.46875 1.974707,7.74263 4.621969,9.24393 2.681695,1.52083 10.503354,-0.32459 13.100064,0 10.08066,1.26008 20.13589,1.15549 30.4022,1.15549 3.08543,0 17.61809,-0.99973 18.6151,0.85371 0.69895,1.29934 -0.61469,4.08188 -1.15549,4.89307 -4.40976,6.61466 -12.94425,-0.49782 -17.35961,4.17944 -1.95342,2.06927 -1.2084,5.83993 -2.29652,8.01621 -0.82435,1.64872 -3.5417,2.60622 -4.30757,4.30757 -1.89068,4.20005 -4.24623,7.7778 -5.77746,12.25672 -0.56655,1.65719 1.82039,2.77765 1.7587,3.72234 -0.17922,2.74461 -4.26548,4.51814 -5.4845,6.54302 -0.62034,1.03044 -0.61593,2.34103 -1.14103,3.4231 -0.5604,1.15482 -17.22028,14.22738 -18.22475,15.03296 -0.44631,0.35796 -2.25904,0.57129 -2.84451,0.91183 -2.010429,1.16944 -13.454079,13.45314 -13.241539,13.87825 0.784172,1.56845 7.696419,0.56507 9.551641,0.56507 14.550938,0 32.766198,2.30666 46.557228,-1.14104 0.90332,-0.22583 7.12092,-1.21783 7.14601,-3.13431 0.0196,-1.4967 -8.98705,2.18646 -10.08355,2.62673 -4.02994,1.61808 -7.23735,4.69445 -11.51155,5.76299 -1.49465,0.37368 -3.12731,-0.37364 -4.62197,0 -1.66829,0.41709 -10.94584,5.24645 -12.30573,6.30458 -3.2019,2.49136 -6.04168,7.50823 -9.77655,8.69568 -4.059924,1.29077 -8.694054,-0.17234 -12.693844,1.15549 -1.325388,0.44001 -2.085422,2.71958 -3.345665,3.34558 -2.894978,1.43809 -6.751896,1.32125 -9.066003,2.24689 -3.752831,1.50112 -8.874686,7.93496 -13.496917,9.11847 -2.752788,0.70483 -6.22609,-0.40298 -9.036873,0 -0.302786,0.0434 -9.936829,2.13924 -10.327071,2.29653 -1.010433,0.40722 -1.409006,1.70003 -2.310984,2.31098 -1.291543,0.87482 -10.518913,0.86453 -11.488701,1.17991 -1.758473,0.57184 -1.965618,4.97538 -2.141439,5.31691 -0.618257,1.20094 -4.620873,4.57409 -0.613503,5.8171 7.305125,2.26592 16.448532,1.14104 24.263715,1.14104 H 84.05148 c 1.674268,0 6.731987,-1.11852 6.601061,1.734 -0.211111,4.59962 -4.552127,1.93839 -6.391106,3.23988 -1.328296,0.94006 -1.998353,2.72063 -3.452019,3.45202 -1.882301,0.94707 -4.586893,1.26042 -6.793523,2.28864 -1.137214,0.52988 -1.720109,2.24274 -2.830619,2.83062 -1.874268,0.99216 -5.044659,0.0259 -7.301095,1.14102 -2.990635,1.47801 -5.418547,4.32977 -7.955012,6.86625 -6.009558,6.00956 -6.234261,3.0934 -2.417972,13.33095 1.494195,4.00833 0.359447,4.09763 2.310985,7.03395 1.52218,2.29031 1.849911,0.0781 3.316891,1.13414 0.87308,0.62849 1.386916,1.68534 2.281999,2.28205 2.588162,1.72548 22.658916,-0.68064 25.300231,-1.12834 4.46347,-0.75652 7.009183,-0.71543 10.382575,-2.92997 1.590728,-1.04428 2.978914,-2.37265 4.535784,-3.38031 0.34483,-0.22318 1.43477,-0.27507 1.11254,-0.52978 -0.74486,-0.5888 -3.082173,0.91927 -3.201579,1.00084 -3.104065,2.12005 -5.078159,5.83073 -8.088445,8.08844 -1.862399,1.39679 -4.52407,1.28599 -6.44548,2.21055 -3.332959,1.60379 -11.617587,13.74462 -8.240641,17.12158 0.40825,0.40825 9.82449,0.75184 12.079986,0 3.90185,-1.30061 0.853996,-0.9593 4.593053,-3.45202 1.651495,-1.10098 4.958572,-0.65834 6.889576,-1.14109 2.77729,-0.69432 8.21178,-4.78087 10.81314,-4.00635 4.66868,1.39001 -14.088055,15.38092 -13.372159,17.53195 0.157139,0.47215 7.519889,1.04365 8.332679,1.04365 2.82124,0 0.71311,0.0296 3.93025,2.12161 1.11346,0.72406 9.11778,0.48258 10.56552,0 0.80683,-0.26894 1.52138,-0.76067 2.28207,-1.14101 1.54066,0 3.1063,0.27633 4.62197,0 4.0545,-0.73925 12.17446,-4.38174 15.77997,-5.58649 1.05012,-0.35089 2.59301,0.23947 3.66127,0 6.85276,-1.53612 12.71648,-3.29854 19.36535,-5.82621 3.35861,-1.2768 8.31878,-0.32205 12.36618,-2.31097 0.91167,-0.448 1.24819,-1.69675 2.15484,-2.15485 0.9417,-0.47577 2.11013,0 3.1652,0 h 10.48455 c 6.19072,0 9.54513,-0.99314 15.58462,-3.00627 9.02858,-3.00953 19.88153,-14.12508 27.77018,-19.07403 3.89414,-2.443 7.12387,-1.495 11.07076,-3.46845 0.9744,-0.4872 1.3472,-1.80311 2.31098,-2.31097 2.29888,-1.21143 5.29678,-0.19045 7.70945,-1.15552 1.01149,-0.40457 1.34481,-1.80766 2.31098,-2.31098 0.31414,-0.16364 0.70841,0 1.06261,0 0.69543,0 1.4707,0.32354 2.08629,0 3.77042,-1.98154 4.12938,-6.06697 8.12083,-8.11003 4.41045,-2.25751 10.96153,-1.7023 15.71966,-3.35841 4.87559,-1.69701 1.31197,-5.30003 2.77723,-8.23058 1.54792,-3.09584 6.45914,-9.43422 9.79037,-11.09213 5.28125,-2.62839 7.45072,-1.3241 13.37202,-2.31097 2.15138,-0.35857 3.31115,-2.27762 5.50325,-2.80805 6.55712,-1.58665 14.13915,0.96231 20.84322,0 4.52165,-0.64905 8.60187,-0.89533 12.71042,-2.31098 4.37833,-1.50863 10.28713,1.46516 14.6826,0 0.0559,-0.0185 2.17535,-2.21104 2.26127,-2.26134 3.44582,-2.01803 12.48494,1.00245 15.42917,1.00245 2.61136,0 20.86213,0.51427 21.36709,-1.01189 0.33282,-1.00598 -2.56593,-1.46342 -2.66814,-1.56732 -0.9929,-1.00904 -9.97257,-11.57007 -10.08636,-12.39726 -0.28615,-2.08026 9.25655,-11.22357 10.72224,-13.75653 0.60999,-1.05424 0.52882,-2.42205 1.15548,-3.46647 2.38477,-3.97465 7.8802,-6.15744 10.17911,-10.1791 0.54843,-0.95943 2.06176,-4.76978 2.31097,-5.2682 1.85891,-3.71785 -1.07354,-17.96219 0,-23.31643 1.25767,-6.27245 6.03864,-9.36099 8.96594,-14.34259 3.34912,-5.69949 3.58587,-26.87772 2.29658,-32.67945 -0.37364,-1.68151 -1.76628,-2.98786 -2.31097,-4.62198 -0.54901,-1.64706 0.55843,-3.85308 0,-5.49656 -0.89623,-2.63769 -1.88916,-6.84766 -3.35574,-9.13321 -1.66627,-2.5967 -8.68093,-0.92236 -9.97135,-4.45129 -0.4163,-1.13851 -0.60648,-2.58705 0,-3.63665 0.52683,-0.91181 1.65433,-1.35465 2.23382,-2.23391 1.43746,-2.18105 1.82846,-5.51954 2.90904,-8.16426 0.56378,-1.37982 2.73304,-2.16035 3.46649,-3.46648 0.90231,-1.60687 0.62971,-9.3002 0,-11.18932 -0.32522,-0.97566 -1.94251,-1.18139 -2.18165,-2.18164 -1.07529,-4.49792 -0.87336,-10.2635 -2.31097,-14.63343 -0.40627,-1.23494 -3.12661,-2.07103 -3.33772,-3.33763 -0.36243,-2.17465 -0.8382,-14.19108 -2.20292,-16.46562 -1.26347,-2.10575 -2.86737,-4.01574 -4.60746,-5.74855 -2.67596,-2.66483 -15.81647,-4.37516 -12.53008,-10.92055 1.10215,-2.19508 2.4911,-4.49786 4.6006,-5.75609 0.82508,-0.49211 8.71786,-0.50909 9.73609,0 2.8281,-0.59364 2.89933,2.57724 4.60742,3.45195 1.05238,0.53892 19.58086,3.14507 21.53219,2.29653 6.03311,-2.62349 5.62163,-19.43917 9.32659,-24.99662 3.13423,-4.70132 8.20494,-5.38545 12.63878,-8.04574 0.93416,-0.5605 1.30966,-1.88185 2.31097,-2.31099 2.00414,-0.85891 12.17039,-2.48065 14.17283,-3.46647 1.60152,-0.78843 0.25765,-6.77002 0.50991,-8.33405 0.66445,-4.11952 0.50159,-9.02767 2.25639,-12.45201 1.05413,-2.05701 -0.73414,-5.66563 0,-7.86809 0.42775,-1.28323 1.81425,-2.10216 2.23285,-3.3884 0.52136,-1.60199 0.21034,-8.11416 0,-9.16587 -0.35396,-1.76987 -3.75153,-2.46474 -4.74271,-2.99642 -0.90295,-0.48437 -1.20277,-1.84593 -2.17361,-2.17368 -3.53279,-1.19264 -25.20421,1.98442 -26.10577,0.34068 -3.42691,-6.247964 6.0035,-12.955638 3.04503,-19.851069 -1.13546,-2.646434 -3.81603,-0.658722 -5.57141,-1.569196 -0.40047,-0.207727 -4.94554,-6.361768 -5.29505,-7.085605 -0.71049,-1.471427 0.72469,-3.985456 0,-5.448599 -1.7779,-3.589567 -4.30234,-5.400468 -4.30234,-9.880293 0,-2.089234 3.12806,-5.413454 1.84185,-7.542188 -2.12892,-3.523343 -5.75109,-3.308702 -8.82304,-5.35667 -3.93525,-2.6235 -4.30913,-8.070326 -8.38494,-10.24364 -1.38437,-0.738171 -5.19982,0.341001 -6.56383,0 -0.52843,-0.132109 -0.67212,-0.90438 -1.15549,-1.155491 -3.21334,-1.669335 -10.467,0.624578 -13.60588,1.155491 -4.32763,0.731981 -10.63757,-1.622697 -14.67392,0 -1.2885,0.518007 -2.22515,1.68837 -3.46647,2.310985 -2.95378,1.481524 -16.56744,1.255188 -19.53159,3.490878 -2.91431,2.198092 -4.80955,3.997822 -7.93922,5.62823 -1.82309,0.949743 -4.64434,-0.01521 -6.84967,1.100942 -0.96303,0.487415 -1.2878,1.888037 -2.28968,2.289648 -2.65358,1.063734 -15.80062,1.292635 -15.80062,-2.640584 0,-1.08037 -0.65551,-2.382313 0,-3.241114 1.40345,-1.838764 12.20451,-10.453663 12.35122,-11.950324 0.21715,-2.215388 -8.04748,-5.990058 -8.67902,-6.368042 -2.20337,-1.318737 -3.5629,-5.771241 -6.09301,-6.403764 -5.26764,-1.316915 -1.4134,-0.176082 -5.46586,-2.310985 -0.52944,-0.278903 -3.09772,-0.281729 -3.61403,0 -1.5635,0.853134 -1.90696,2.34609 -3.79971,2.959856 -3.64487,1.181924 -8.64811,2.865837 -12.08323,4.567417 -1.17755,0.583302 -3.01961,2.99381 -4.03441,3.319608 -1.46693,0.470937 -3.09679,-0.217882 -4.62198,0 -3.48205,0.497437 -9.47939,4.22435 -13.30601,2.310984 -1.83562,-0.91785 -2.74468,-3.256264 -5.36458,-2.206712 -4.8046,1.924743 -6.93179,10.311132 -11.5122,11.610001 -2.80795,0.796256 -6.42669,-0.920885 -9.18935,0 -6.47107,2.157026 -13.37179,-0.197591 -20.10587,1.100908 -1.46898,0.283255 -2.8492,3.731019 -3.39779,4.553275 -15.20313,20.27074 5.75794,-8.934257 -4.65399,9.286608 -3.05544,5.347028 -2.75306,2.262425 -4.52732,7.743399 -0.81891,2.529728 2.56686,6.67219 1.14103,9.4894 -2.24975,4.445145 -9.83098,12.832278 -14.25541,15.356326 -6.29461,3.590936 -16.26448,5.46454 -20.42593,12.91102 -1.90489,3.40862 10.84099,2.46703 12.99753,2.46703 0.91559,0 2.79836,-1.97207 2.51649,-1.10094 -0.57081,1.76413 -1.58177,3.35409 -2.37265,5.03113"
       sodipodi:nodetypes="cssssssssssssscssssssccssssssssssssssssssssssssssssssssssssssssssssssssssssssssssscssssssssssscssssssssssssssssssssssssccsscsssssssssssssssssssssssscssssssssssssssssssssssssssssssssssssssssssssssscsssssssc" />
    <path
       style="fill:#0000ff;fill-rule:evenodd;stroke:#00007d;stroke-width:13.4167;stroke-linecap:butt;stroke-linejoin:miter;stroke-miterlimit:4;stroke-dasharray:none;stroke-opacity:1"
       d="M 158.67914,404.98797 402.9877,134.69404"
       id="path2412"
       inkscape:connector-type="polyline"
       inkscape:connector-curvature="0" />
    <path
       style="fill:#0000ff;fill-rule:evenodd;stroke:#00007d;stroke-width:11.371;stroke-linecap:butt;stroke-linejoin:miter;stroke-miterlimit:4;stroke-dasharray:none;stroke-opacity:1"
       d="M 142.00255,429.68326 178.38974,209.70953"
       id="path2412-5"
       inkscape:connector-type="polyline"
       inkscape:connector-curvature="0" />
    <path
       style="fill:#ffcc00;fill-opacity:1;stroke:#000300;stroke-width:0;stroke-linecap:round;stroke-miterlimit:4;stroke-dasharray:none"
       id="path1909"
       sodipodi:type="arc"
       sodipodi:cx="146.96838"
       sodipodi:cy="412.1683"
       sodipodi:rx="36.825939"
       sodipodi:ry="35.431812"
       sodipodi:start="5.9104179"
       sodipodi:end="5.8780944"
       sodipodi:open="true"
       sodipodi:arc-type="arc"
       d="m 181.26523,399.26424 a 36.825939,35.431812 0 0 1 -20.60835,45.79718 36.825939,35.431812 0 0 1 -47.76411,-19.45745 36.825939,35.431812 0 0 1 19.8364,-46.11163 36.825939,35.431812 0 0 1 48.0847,18.71221" />
    <path
       style="fill:#aa4400;fill-opacity:1;stroke:#000300;stroke-width:0;stroke-linecap:round;stroke-miterlimit:4;stroke-dasharray:none"
       id="path1909-6"
       sodipodi:type="arc"
       sodipodi:cx="406.39609"
       sodipodi:cy="132.37526"
       sodipodi:rx="36.825939"
       sodipodi:ry="35.431812"
       sodipodi:start="5.9104179"
       sodipodi:end="5.8780944"
       sodipodi:open="true"
       sodipodi:arc-type="arc"
       d="m 440.69293,119.4712 a 36.825939,35.431812 0 0 1 -20.60834,45.79717 36.825939,35.431812 0 0 1 -47.76412,-19.45745 36.825939,35.431812 0 0 1 19.8364,-46.11163 36.825939,35.431812 0 0 1 48.08471,18.71221" />
    <path
       style="fill:#800000;fill-opacity:1;stroke:#009700;stroke-width:0;stroke-linecap:round;stroke-miterlimit:4;stroke-dasharray:none;stroke-opacity:1"
       id="path1909-7"
       sodipodi:type="arc"
       sodipodi:cx="175.95813"
       sodipodi:cy="212.70441"
       sodipodi:rx="36.825939"
       sodipodi:ry="35.431812"
       sodipodi:start="5.9104179"
       sodipodi:end="5.8780944"
       sodipodi:open="true"
       sodipodi:arc-type="arc"
       d="m 210.25498,199.80035 a 36.825939,35.431812 0 0 1 -20.60835,45.79717 36.825939,35.431812 0 0 1 -47.76412,-19.45745 36.825939,35.431812 0 0 1 19.8364,-46.11163 36.825939,35.431812 0 0 1 48.08471,18.71221" />
  </g>
</svg>
