<?xml version="1.0" encoding="UTF-8" standalone="no"?>
<!-- Created with Inkscape (http://www.inkscape.org/) -->

<svg
   version="1.1"
   id="svg1"
   width="163.84"
   height="163.84"
   viewBox="0 0 163.84 163.84"
   sodipodi:docname="moves.svg"
   inkscape:version="1.1.2 (0a00cf5339, 2022-02-04)"
   inkscape:export-filename="cow_moves.png"
   inkscape:export-xdpi="360"
   inkscape:export-ydpi="360"
   xml:space="preserve"
   xmlns:inkscape="http://www.inkscape.org/namespaces/inkscape"
   xmlns:sodipodi="http://sodipodi.sourceforge.net/DTD/sodipodi-0.dtd"
   xmlns="http://www.w3.org/2000/svg"
   xmlns:svg="http://www.w3.org/2000/svg"><defs
     id="defs1"><inkscape:path-effect
       effect="bspline"
       id="path-effect8"
       is_visible="true"
       lpeversion="1.3"
       weight="33.333333"
       steps="2"
       helper_size="0"
       apply_no_weight="true"
       apply_with_weight="true"
       only_selected="false"
       uniform="false" /><inkscape:path-effect
       effect="bspline"
       id="path-effect7"
       is_visible="true"
       lpeversion="1.3"
       weight="33.333333"
       steps="2"
       helper_size="0"
       apply_no_weight="true"
       apply_with_weight="true"
       only_selected="false"
       uniform="false" /><inkscape:path-effect
       effect="bspline"
       id="path-effect6"
       is_visible="true"
       lpeversion="1.3"
       weight="33.333333"
       steps="2"
       helper_size="0"
       apply_no_weight="true"
       apply_with_weight="true"
       only_selected="false"
       uniform="false" /><inkscape:path-effect
       effect="bspline"
       id="path-effect2"
       is_visible="true"
       lpeversion="1.3"
       weight="33.333333"
       steps="2"
       helper_size="0"
       apply_no_weight="true"
       apply_with_weight="true"
       only_selected="false"
       uniform="false" /><inkscape:path-effect
       effect="bspline"
       id="path-effect1"
       is_visible="true"
       lpeversion="1.3"
       weight="33.333333"
       steps="2"
       helper_size="0"
       apply_no_weight="true"
       apply_with_weight="true"
       only_selected="false"
       uniform="false" /></defs><sodipodi:namedview
     id="namedview1"
     pagecolor="#ffffff"
     bordercolor="#666666"
     borderopacity="1.0"
     inkscape:showpageshadow="2"
     inkscape:pageopacity="0.0"
     inkscape:pagecheckerboard="0"
     inkscape:deskcolor="#d1d1d1"
     inkscape:zoom="4.9847922"
     inkscape:cx="87.466034"
     inkscape:cy="91.077017"
     inkscape:window-width="2504"
     inkscape:window-height="1305"
     inkscape:window-x="0"
     inkscape:window-y="0"
     inkscape:window-maximized="1"
     inkscape:current-layer="svg1"
     inkscape:pageshadow="0"
     showgrid="false" /><g
     inkscape:groupmode="layer"
     id="layer2"
     inkscape:label="Layer 2" /><g
     inkscape:groupmode="layer"
     id="layer1"
     inkscape:label="Layer 1"
     style="display:inline"><ellipse
       style="fill:#fffdff;fill-opacity:1;stroke:#141913;stroke-width:15.4374;stroke-linejoin:round;stroke-miterlimit:4;stroke-dasharray:none;stroke-dashoffset:728.315;stroke-opacity:0.977597;paint-order:stroke fill markers"
       id="path853"
       cx="81.447731"
       cy="82.450783"
       rx="72.324326"
       ry="72.356171" /></g><path
     style="fill:#000000"
     d="m 87.08738,51.662584 c 0.741258,-0.111632 1.51489,-0.404368 1.719182,-0.650525 0.204292,-0.246157 0.563413,-0.447557 0.798047,-0.447557 1.87535,0 7.461744,-6.149448 7.506368,-8.262935 0.0062,-0.295386 0.217133,-0.897065 0.46866,-1.337065 0.675707,-1.182026 0.64995,-7.580245 -0.03699,-9.189143 -1.951181,-4.569893 -4.322947,-7.514404 -7.204894,-8.944766 -3.489511,-1.731906 -3.735795,-1.793081 -7.253173,-1.801636 -6.263328,-0.01523 -11.520798,2.985327 -13.768934,7.858246 -1.678282,3.637741 -1.743291,3.935638 -1.707639,7.825113 0.0677,7.3856 5.466539,14.663273 11.0049,14.834677 0.399703,0.01237 1.014733,0.153269 1.366733,0.313108 0.642248,0.291638 4.587684,0.181999 7.107742,-0.197517 z"
     id="path1445" /><path
     style="fill:#3f0000;fill-opacity:1"
     d="m 118.69964,98.349089 c -0.352,-0.07764 -1.072,-0.340001 -1.6,-0.583017 -0.528,-0.243015 -1.644,-0.738784 -2.48,-1.101709 -0.836,-0.362924 -2.204,-0.956801 -3.04,-1.319725 -0.836,-0.362925 -2.024,-0.881277 -2.64,-1.151894 -2.20339,-0.967977 -3.05557,-1.325683 -4.12252,-1.730443 -3.09788,-1.175219 -3.84441,-3.4294 -1.8397,-5.555016 l 1.07779,-1.142784 h 2.76221 c 1.51922,0 2.76222,-0.07465 2.76222,-0.16589 0,-0.216564 -1.47312,-2.925627 -2.25891,-4.15411 -0.33772,-0.528 -0.71564,-1.176 -0.83982,-1.44 -0.2109,-0.448382 -6.14148,-10.465305 -6.820486,-11.52 -0.169962,-0.264 -0.680015,-1.2 -1.133451,-2.08 -0.453437,-0.88 -1.101946,-2.032 -1.441132,-2.56 -0.339186,-0.528 -0.748425,-1.248 -0.909421,-1.6 -0.160996,-0.352 -0.667134,-1.186395 -1.124751,-1.854211 -0.457618,-0.667816 -0.832032,-1.329497 -0.832032,-1.470404 0,-0.140906 -0.260661,-0.492088 -0.579247,-0.780405 L 93.061142,57.61527 91.32039,58.280083 c -0.957414,0.365648 -2.316753,0.793141 -3.020753,0.949985 -0.704,0.156844 -1.856,0.42782 -2.56,0.602168 -6.587342,1.631382 -17.112803,-3.03628 -21.548837,-9.556131 -3.777629,-5.552163 -5.505624,-14.252602 -3.870736,-19.489126 1.536531,-4.921486 2.959027,-7.354703 6.383368,-10.918921 9.641103,-10.0349226 26.30531,-8.505851 34.793308,3.192558 1.12232,1.546815 1.62911,2.505096 2.95306,5.583886 2.70824,6.297939 0.92743,16.850109 -3.75016,22.221535 -1.641582,1.885076 -1.715786,2.758478 -0.4,4.708099 0.528,0.782347 0.96,1.472772 0.96,1.534278 0,0.0615 0.57446,1.026286 1.27659,2.143958 0.70212,1.117671 1.57018,2.536129 1.92902,3.152129 0.35883,0.616 0.93178,1.552 1.27321,2.08 0.34143,0.528 0.8401,1.392 1.10814,1.92 0.26805,0.528 0.91948,1.68 1.44762,2.56 0.52815,0.88 1.10508,1.888 1.28208,2.24 0.17699,0.352 0.46335,0.856 0.63634,1.12 1.07279,1.637161 4.807,8.073106 4.807,8.284905 0,0.310288 1.24492,1.471832 1.37881,1.286466 0.5839,-0.808399 1.18119,-1.944701 1.18119,-2.247155 0,-0.208066 0.51364,-1.005132 1.14142,-1.771259 l 1.14142,-1.392957 h 1.56074 c 1.1885,0 1.77486,0.18419 2.45857,0.772293 l 0.89785,0.772293 -0.0286,1.707707 c -0.0157,0.939239 -0.20406,2.931707 -0.41852,4.427707 -0.21447,1.496 -0.56678,4.808 -0.78293,7.36 -0.55577,6.56197 -1.29903,7.607846 -4.84995,6.824588 z"
     id="path1443" /><path
     style="fill:#000000"
     d="m 139.47972,146.91794 c 0.18695,-0.14586 0.75436,-0.36442 1.2609,-0.4857 2.09728,-0.50214 7.55902,-5.14639 7.55902,-6.42762 0,-0.19367 0.16494,-0.51707 0.36654,-0.71867 5.73708,-5.73708 -0.70897,-20.24405 -10.06216,-22.6451 -18.51687,-4.75344 -26.85838,23.48351 -8.86438,30.00696 2.36934,0.85897 8.75821,1.03616 9.74008,0.27013 z"
     id="path1441" /><path
     style="fill:#000049;fill-opacity:1"
     d="m 130.21964,154.71527 c -0.704,-0.25362 -1.52033,-0.4633 -1.81407,-0.46595 -0.29374,-0.003 -0.94174,-0.20321 -1.44,-0.44569 -0.49826,-0.24248 -1.48193,-0.71048 -2.18593,-1.04 -3.3723,-1.57847 -7.24913,-5.14435 -9.34901,-8.59913 -0.72585,-1.19419 -2.2844,-4.47615 -2.5074,-5.28 -0.46019,-1.65891 0.0993,-1.6 -15.196603,-1.6 -17.020462,0 -16.078111,-0.1554 -14.373529,2.37031 0.604165,0.8952 1.042908,2.02877 1.156524,2.98808 l 0.183064,1.54569 -0.888151,1.05551 c -1.477066,1.75539 -3.192916,1.96092 -4.714017,0.56466 -1.329937,-1.22078 -5.423832,-4.45756 -9.257375,-7.3192 -6.013171,-4.48867 -5.934244,-5.68343 0.668944,-10.12616 0.947346,-0.63739 2.245898,-1.51889 2.88567,-1.95889 1.258295,-0.86539 5.686268,-4.35805 6.374257,-5.02784 3.15585,-3.07236 6.310046,2.50936 3.591484,6.35555 -1.616866,2.28753 -2.212061,2.19229 13.701025,2.19229 15.192737,0 15.085117,0.0109 15.085117,-1.52387 0,-1.61971 1.40221,-5.27056 3.11317,-8.10558 0.98292,-1.62867 3.92239,-5.40539 4.21817,-5.41963 0.10376,-0.005 0.83666,-0.59328 1.62866,-1.30729 0.792,-0.71401 1.728,-1.43234 2.08,-1.59627 0.352,-0.16394 1.27465,-0.65566 2.05033,-1.09271 0.77568,-0.43706 1.59201,-0.79465 1.81406,-0.79465 0.22206,0 0.81141,-0.20707 1.30967,-0.46015 2.68516,-1.36387 11.16883,-1.3354 13.70594,0.046 0.352,0.19165 1.288,0.60738 2.08,0.92383 1.81049,0.7234 4.29192,2.32241 6.17139,3.97679 1.62745,1.43254 4.98031,5.88779 5.534,7.35354 0.0997,0.264 0.32156,0.74085 0.49296,1.05967 8.07087,15.0125 -10.36263,37.4073 -26.11835,31.7311 z"
     id="path1439" /><path
     style="fill:#000000"
     d="m 34.979593,146.87348 c 0.286025,-0.15759 1.168046,-0.57639 1.960046,-0.93067 11.646059,-5.20946 11.18838,-23.18921 -0.723016,-28.40341 -17.157609,-7.51073 -30.3467469,17.53319 -14.51624,27.56386 3.44814,2.18484 10.758092,3.15931 13.27921,1.77022 z"
     id="path1437" /><path
     style="fill:#003300;fill-opacity:1"
     d="m 25.739639,154.99071 c -0.44,-0.0882 -0.9368,-0.29221 -1.104,-0.45331 -0.1672,-0.16109 -0.679677,-0.2929 -1.138839,-0.2929 -0.459161,0 -1.114361,-0.21142 -1.456,-0.46982 -0.341638,-0.25841 -0.799266,-0.47441 -1.016951,-0.48 -2.418132,-0.0622 -11.2842098,-8.32438 -11.2842098,-10.51563 0,-0.1629 -0.216,-0.47545 -0.48,-0.69455 -0.264,-0.2191 -0.48,-0.61097 -0.48,-0.87082 0,-0.25985 -0.193675,-0.92622 -0.4303888,-1.48082 -3.3379319,-7.82047 -1.1380467,-17.51732 5.4786646,-24.14937 1.635764,-1.63955 3.437078,-3.19239 4.00292,-3.45075 0.565842,-0.25836 1.663453,-0.8249 2.439135,-1.25899 0.775682,-0.43409 1.646882,-0.78925 1.936,-0.78925 0.289118,0 0.677666,-0.152 0.863439,-0.33777 0.55913,-0.55913 4.2153,-1.06022 7.893709,-1.08186 l 3.463479,-0.0204 0.932304,-1.6 c 0.512767,-0.88 1.016591,-1.816 1.119609,-2.08 0.103018,-0.264 0.313546,-0.696 0.467841,-0.96 0.154295,-0.264 1.811589,-3.576 3.682877,-7.36 1.871287,-3.783999 3.535573,-7.095999 3.698412,-7.359999 0.16284,-0.264 0.367155,-0.66 0.454035,-0.88 0.08688,-0.22 0.229047,-0.58 0.315927,-0.8 0.08688,-0.22 0.29269,-0.616 0.457357,-0.88 0.164666,-0.264 0.604672,-1.128 0.97779,-1.92 0.373118,-0.792 0.79485,-1.656 0.937183,-1.92 1.760114,-3.264675 1.671189,-3.455464 -1.396842,-2.996955 -2.623971,0.392145 -3.89799,0.01368 -4.882371,-1.450368 -1.733658,-2.578437 -0.935836,-3.483035 6.324436,-7.170863 3.247466,-1.649539 6.910198,-3.598258 8.139405,-4.330487 3.512948,-2.092638 5.074314,-1.688255 5.676526,1.47018 0.340061,1.783528 1.118239,6.496091 1.507919,9.13179 0.150702,1.019313 0.416409,2.243313 0.590459,2.72 2.551418,6.987782 -2.084575,11.101549 -5.925013,5.257585 -0.661754,-1.006985 -1.305869,-1.974181 -1.431366,-2.149323 -0.369312,-0.515409 -0.957711,0.506921 -5.063917,8.798441 -2.13543,4.311999 -4.015575,8.055999 -4.178101,8.319999 -0.162526,0.264 -0.376975,0.696 -0.476554,0.96 -0.09958,0.264 -0.315578,0.696 -0.48,0.96 -0.164421,0.264 -0.38455,0.696 -0.489175,0.96 -0.401771,1.01379 -3.095953,6.25495 -3.363896,6.544 -0.768463,0.82899 -0.272272,1.94165 1.362823,3.056 1.857467,1.2659 5.715373,5.28822 5.715373,5.95895 0,0.24258 0.118494,0.44105 0.26332,0.44105 0.275896,0 1.792925,3.18815 2.816935,5.92 0.712934,1.90197 0.898805,11.85212 0.236696,12.67099 -0.199676,0.24696 -0.469737,0.94715 -0.600135,1.55598 -1.191706,5.56415 -7.632303,12.07113 -14.660042,14.81114 -1.649297,0.64303 -9.306796,1.09114 -11.416773,0.6681 z"
     id="path8" /></svg>
