<?xml version="1.0" encoding="UTF-8" standalone="no"?>
<!-- Generator: Adobe Illustrator 18.1.1, SVG Export Plug-In . SVG Version: 6.00 Build 0)  -->

<svg
   version="1.1"
   id="Capa_1"
   x="0px"
   y="0px"
   viewBox="0 0 256 256"
   xml:space="preserve"
   sodipodi:docname="alignment.svg"
   inkscape:version="1.1.2 (0a00cf5339, 2022-02-04)"
   width="256"
   height="256"
   xmlns:inkscape="http://www.inkscape.org/namespaces/inkscape"
   xmlns:sodipodi="http://sodipodi.sourceforge.net/DTD/sodipodi-0.dtd"
   xmlns="http://www.w3.org/2000/svg"
   xmlns:svg="http://www.w3.org/2000/svg"><defs
   id="defs1435"><rect
     x="-85.229172"
     y="-35.956057"
     width="369.77031"
     height="336.92157"
     id="rect34582" /><rect
     x="112.30719"
     y="28.409724"
     width="249.02899"
     height="80.790153"
     id="rect5639" /><inkscape:path-effect
     effect="simplify"
     id="path-effect1676"
     is_visible="true"
     lpeversion="1"
     steps="1"
     threshold="0.000408163"
     smooth_angles="360"
     helper_size="0"
     simplify_individual_paths="false"
     simplify_just_coalesce="false" /><inkscape:path-effect
     effect="simplify"
     id="path-effect1672"
     is_visible="true"
     lpeversion="1"
     steps="1"
     threshold="0.000408163"
     smooth_angles="360"
     helper_size="0"
     simplify_individual_paths="false"
     simplify_just_coalesce="false" /><inkscape:path-effect
     effect="simplify"
     id="path-effect1668"
     is_visible="true"
     lpeversion="1"
     steps="1"
     threshold="0.000408163"
     smooth_angles="360"
     helper_size="0"
     simplify_individual_paths="false"
     simplify_just_coalesce="false" /><inkscape:path-effect
     effect="simplify"
     id="path-effect1664"
     is_visible="true"
     lpeversion="1"
     steps="1"
     threshold="0.000408163"
     smooth_angles="360"
     helper_size="0"
     simplify_individual_paths="false"
     simplify_just_coalesce="false" /><inkscape:path-effect
     effect="simplify"
     id="path-effect1660"
     is_visible="true"
     lpeversion="1"
     steps="1"
     threshold="0.000408163"
     smooth_angles="360"
     helper_size="0"
     simplify_individual_paths="false"
     simplify_just_coalesce="false" /><inkscape:path-effect
     effect="simplify"
     id="path-effect1656"
     is_visible="true"
     lpeversion="1"
     steps="1"
     threshold="0.000408163"
     smooth_angles="360"
     helper_size="0"
     simplify_individual_paths="false"
     simplify_just_coalesce="false" /><inkscape:path-effect
     effect="simplify"
     id="path-effect1652"
     is_visible="true"
     lpeversion="1"
     steps="1"
     threshold="0.000408163"
     smooth_angles="360"
     helper_size="0"
     simplify_individual_paths="false"
     simplify_just_coalesce="false" /><inkscape:path-effect
     effect="simplify"
     id="path-effect1648"
     is_visible="true"
     lpeversion="1"
     steps="1"
     threshold="0.000408163"
     smooth_angles="360"
     helper_size="0"
     simplify_individual_paths="false"
     simplify_just_coalesce="false" /><inkscape:path-effect
     effect="simplify"
     id="path-effect1644"
     is_visible="true"
     lpeversion="1"
     steps="1"
     threshold="0.000408163"
     smooth_angles="360"
     helper_size="0"
     simplify_individual_paths="false"
     simplify_just_coalesce="false" /><inkscape:path-effect
     effect="simplify"
     id="path-effect1640"
     is_visible="true"
     lpeversion="1"
     steps="1"
     threshold="0.000408163"
     smooth_angles="360"
     helper_size="0"
     simplify_individual_paths="false"
     simplify_just_coalesce="false" /><inkscape:path-effect
     effect="simplify"
     id="path-effect1636"
     is_visible="true"
     lpeversion="1"
     steps="1"
     threshold="0.000408163"
     smooth_angles="360"
     helper_size="0"
     simplify_individual_paths="false"
     simplify_just_coalesce="false" /><inkscape:path-effect
     effect="simplify"
     id="path-effect1632"
     is_visible="true"
     lpeversion="1"
     steps="1"
     threshold="0.000408163"
     smooth_angles="360"
     helper_size="0"
     simplify_individual_paths="false"
     simplify_just_coalesce="false" /></defs><sodipodi:namedview
   id="namedview1433"
   pagecolor="#ffffff"
   bordercolor="#999999"
   borderopacity="1"
   inkscape:pageshadow="0"
   inkscape:pageopacity="0"
   inkscape:pagecheckerboard="0"
   showgrid="false"
   inkscape:zoom="2.2527498"
   inkscape:cx="39.285321"
   inkscape:cy="88.336485"
   inkscape:window-width="2500"
   inkscape:window-height="1305"
   inkscape:window-x="0"
   inkscape:window-y="0"
   inkscape:window-maximized="1"
   inkscape:current-layer="text5975-2"
   showguides="true"
   units="px"
   width="15.27307px"
   scale-x="1.09883"
   fit-margin-top="0"
   fit-margin-left="0"
   fit-margin-right="0"
   fit-margin-bottom="0" />

<g
   id="g1402"
   transform="translate(-0.05518201,-0.11066964)">
</g>
<g
   id="g1404"
   transform="translate(-0.05518201,-0.11066964)">
</g>
<g
   id="g1406"
   transform="translate(-0.05518201,-0.11066964)">
</g>
<g
   id="g1408"
   transform="translate(-0.05518201,-0.11066964)">
</g>
<g
   id="g1410"
   transform="translate(-0.05518201,-0.11066964)">
</g>
<g
   id="g1412"
   transform="translate(-0.05518201,-0.11066964)">
</g>
<g
   id="g1414"
   transform="translate(-0.05518201,-0.11066964)">
</g>
<g
   id="g1416"
   transform="translate(-0.05518201,-0.11066964)">
</g>
<g
   id="g1418"
   transform="translate(-0.05518201,-0.11066964)">
</g>
<g
   id="g1420"
   transform="translate(-0.05518201,-0.11066964)">
</g>
<g
   id="g1422"
   transform="translate(-0.05518201,-0.11066964)">
</g>
<g
   id="g1424"
   transform="translate(-0.05518201,-0.11066964)">
</g>
<g
   id="g1426"
   transform="translate(-0.05518201,-0.11066964)">
</g>
<g
   id="g1428"
   transform="translate(-0.05518201,-0.11066964)">
</g>
<g
   id="g1430"
   transform="translate(-0.05518201,-0.11066964)">
</g>
<rect
   style="fill:#f2f5ec;fill-opacity:0.78242677;stroke:#ac3a3f;stroke-width:0;stroke-linecap:round;stroke-linejoin:round;stroke-miterlimit:4;stroke-dasharray:none;stroke-opacity:1;paint-order:markers fill stroke"
   id="rect2407-1"
   width="244.58998"
   height="241.48265"
   x="4.8829265"
   y="6.8829226" /><text
   xml:space="preserve"
   id="text5637"
   style="fill:black;fill-opacity:1;line-height:1.25;stroke:none;font-family:sans-serif;font-style:normal;font-weight:normal;font-size:40px;white-space:pre;shape-inside:url(#rect5639)" /><g
   aria-label="ACG"
   transform="scale(1.0932794,0.91467927)"
   id="text5975-7"
   style="font-weight:bold;font-size:117.333px;line-height:1.25;font-family:FreeMono;-inkscape-font-specification:'FreeMono, Bold';stroke-width:3.00765"><path
     d="m 54.193594,167.83554 q 0,-3.40265 1.994661,-4.57598 1.994661,-1.29067 5.749317,-1.29067 h 2.698659 l -2.698659,-6.80531 H 34.012318 l -2.698659,6.80531 h 2.698659 q 7.743978,0 7.743978,5.86665 0,5.86665 -7.743978,5.86665 H 18.407029 q -7.743978,0 -7.743978,-5.86665 0,-3.51999 2.111994,-4.69332 1.994661,-1.17333 5.749317,-1.17333 l 18.186615,-44.93853 h -7.391979 q -7.861311,0 -7.861311,-5.86665 0,-3.51999 1.994661,-4.69332 2.111994,-1.17333 5.86665,-1.17333 h 25.343928 l 23.349267,56.67183 q 7.978644,0 7.978644,5.86665 0,5.86665 -7.743978,5.86665 H 61.937572 q -7.743978,0 -7.743978,-5.86665 z m 2.933325,-24.40526 -9.151974,-22.52794 -9.269307,22.52794 z"
     id="path41905" /><path
     d="m 122.24655,163.61156 q 5.51465,0 9.38664,-1.29067 3.98933,-1.40799 5.63199,-2.93332 1.64266,-1.64266 3.28532,-2.93333 1.76,-1.40799 3.28533,-1.40799 2.34666,0 4.10665,1.75999 1.76,1.76 1.76,4.10666 0,5.04532 -8.09598,9.73864 -7.97865,4.69332 -19.71195,4.69332 -14.90129,0 -24.757258,-8.68265 -9.738639,-8.79997 -9.738639,-22.17593 v -7.74398 q 0,-14.07996 9.151974,-23.58393 9.151973,-9.50398 22.762603,-9.50398 8.21331,0 16.66128,3.98933 l 1.17333,0.46933 q 1.99467,-2.81599 4.92799,-2.81599 3.40266,0 4.57599,1.99466 1.29066,1.99466 1.29066,5.74931 v 9.85598 q 0,7.74397 -5.86665,7.74397 -2.11199,0 -3.51999,-1.17333 -1.29066,-1.17333 -1.64266,-2.11199 -0.23467,-1.056 -0.58667,-2.93333 -0.70399,-3.51999 -4.34132,-5.63198 -3.51999,-2.22933 -6.57065,-2.81599 -3.05065,-0.58667 -5.63198,-0.58667 -8.91731,0 -14.78396,6.10132 -5.866647,5.98398 -5.866647,15.25329 v 7.50931 q 0,8.79998 6.218647,14.07996 6.33598,5.27999 16.89595,5.27999 z"
     style="fill:#004d71;fill-opacity:1"
     id="path41907" /><path
     d="m 215.52611,140.84895 q 7.86131,0 7.86131,5.86665 0,4.45866 -4.92799,5.86665 v 15.48796 q -7.86131,4.10666 -13.37596,5.63198 -5.51465,1.64267 -12.31996,1.64267 -7.97865,0 -14.31463,-1.87733 -6.33598,-1.99466 -10.09064,-5.04532 -3.75465,-3.05066 -6.21865,-7.15731 -2.46399,-4.22399 -3.40265,-8.21331 -0.93867,-3.98933 -0.93867,-8.21331 v -8.33065 q 0,-13.72796 9.26931,-23.23193 9.38664,-9.62131 24.05326,-9.62131 9.50398,0 17.01329,3.75466 1.87733,-3.75466 4.81065,-3.75466 3.16799,0 4.34132,1.99466 1.17333,1.87733 1.17333,5.74932 v 9.15198 q 0,3.75465 -1.29066,5.74931 -1.17333,1.99466 -4.57599,1.99466 -0.82133,0 -1.64266,-0.11733 -0.704,-0.23467 -1.17333,-0.46933 -0.46933,-0.352 -0.93866,-0.82133 -0.352,-0.46933 -0.704,-0.82133 -0.23467,-0.46934 -0.46933,-1.056 -0.23467,-0.704 -0.352,-1.056 -0.11733,-0.352 -0.352,-0.93866 -0.11733,-0.704 -0.11733,-0.93867 -0.93867,-3.05065 -5.04532,-4.81065 -4.10666,-1.87733 -10.55997,-1.87733 -9.85597,0 -15.83996,5.86665 -5.86665,5.74932 -5.86665,15.25329 v 7.50932 q 0,19.59461 22.52794,19.59461 8.09598,0 14.66662,-2.93333 v -8.09598 h -11.7333 q -7.74397,0 -7.74397,-5.86665 0,-3.40265 1.99466,-4.57598 1.99466,-1.29067 5.74931,-1.29067 z"
     style="fill:#004700"
     id="path41909" /></g><g
   aria-label="ATG"
   transform="scale(1.0932794,0.91467927)"
   id="text5975"
   style="font-weight:bold;font-size:117.333px;line-height:1.25;font-family:FreeMono;-inkscape-font-specification:'FreeMono, Bold';stroke-width:3.00765"><path
     d="m 53.924485,78.962795 q 0,-3.402657 1.994661,-4.575987 1.994661,-1.290663 5.749317,-1.290663 h 2.698659 L 61.668463,66.290831 H 33.743209 l -2.698659,6.805314 h 2.698659 q 7.743978,0 7.743978,5.86665 0,5.86665 -7.743978,5.86665 H 18.13792 q -7.743978,0 -7.743978,-5.86665 0,-3.51999 2.111994,-4.69332 1.994661,-1.17333 5.749317,-1.17333 L 36.441868,28.157606 h -7.391979 q -7.861311,0 -7.861311,-5.86665 0,-3.51999 1.994661,-4.69332 2.111994,-1.17333 5.86665,-1.17333 h 25.343928 l 23.349267,56.671839 q 7.978644,0 7.978644,5.86665 0,5.86665 -7.743978,5.86665 H 61.668463 q -7.743978,0 -7.743978,-5.86665 z M 56.85781,54.557531 47.705836,32.029595 38.436529,54.557531 Z"
     id="path37568" /><path
     d="m 131.95075,73.096145 q 7.74398,0 7.74398,5.86665 0,5.86665 -7.74398,5.86665 h -27.10392 q -7.743981,0 -7.743981,-5.86665 0,-3.402657 1.994661,-4.575987 1.99466,-1.290663 5.74932,-1.290663 h 7.62664 V 28.157606 H 99.918841 v 10.911969 q 0,7.743978 -5.86665,7.743978 -5.86665,0 -5.86665,-7.743978 V 16.424306 h 60.543829 v 22.645269 q 0,3.754656 -1.29066,5.749317 -1.17333,1.994661 -4.57599,1.994661 -5.86665,0 -5.86665,-7.743978 V 28.157606 h -12.7893 v 44.938539 z"
     style="fill:#620000"
     id="path37570" /><path
     d="m 215.257,51.976205 q 7.86131,0 7.86131,5.86665 0,4.458654 -4.92798,5.86665 v 15.487956 q -7.86132,4.106655 -13.37597,5.631984 -5.51465,1.642662 -12.31996,1.642662 -7.97865,0 -14.31463,-1.877328 -6.33598,-1.994661 -10.09064,-5.045319 -3.75465,-3.050658 -6.21864,-7.157313 -2.464,-4.223988 -3.40266,-8.21331 -0.93867,-3.989322 -0.93867,-8.21331 v -8.330643 q 0,-13.727961 9.26931,-23.231934 9.38664,-9.621306 24.05327,-9.621306 9.50397,0 17.01328,3.754656 1.87733,-3.754656 4.81065,-3.754656 3.168,0 4.34133,1.994661 1.17333,1.877328 1.17333,5.749317 v 9.151974 q 0,3.754656 -1.29067,5.749317 -1.17333,1.994661 -4.57598,1.994661 -0.82134,0 -1.64267,-0.117333 -0.70399,-0.234666 -1.17333,-0.469332 -0.46933,-0.351999 -0.93866,-0.821331 -0.352,-0.469332 -0.704,-0.821331 -0.23466,-0.469332 -0.46933,-1.055997 -0.23467,-0.703998 -0.352,-1.055997 -0.11733,-0.351999 -0.352,-0.938664 -0.11733,-0.703998 -0.11733,-0.938664 -0.93867,-3.050658 -5.04532,-4.810653 -4.10666,-1.877328 -10.55997,-1.877328 -9.85597,0 -15.83996,5.86665 -5.86665,5.749317 -5.86665,15.25329 v 7.509312 q 0,19.594611 22.52794,19.594611 8.09598,0 14.66663,-2.933325 v -8.095977 h -11.7333 q -7.74398,0 -7.74398,-5.86665 0,-3.402657 1.99466,-4.575987 1.99466,-1.290663 5.74932,-1.290663 z"
     style="fill:#004b00"
     id="path37572" /></g><g
   aria-label="ACG"
   transform="scale(1.0932794,0.91467927)"
   id="text5975-2"
   style="font-weight:bold;font-size:117.333px;line-height:1.25;font-family:FreeMono;-inkscape-font-specification:'FreeMono, Bold';stroke-width:3.00765"><path
     d="m 55.130517,256.08709 q 0,-3.40266 1.994661,-4.57599 1.994661,-1.29066 5.749317,-1.29066 h 2.698659 l -2.698659,-6.80532 H 34.949241 l -2.698659,6.80532 h 2.698659 q 7.743978,0 7.743978,5.86665 0,5.86665 -7.743978,5.86665 H 19.343952 q -7.743978,0 -7.743978,-5.86665 0,-3.51999 2.111994,-4.69332 1.994661,-1.17333 5.749317,-1.17333 L 37.6479,205.2819 h -7.391979 q -7.861311,0 -7.861311,-5.86665 0,-3.51999 1.994661,-4.69332 2.111994,-1.17333 5.86665,-1.17333 h 25.343928 l 23.349267,56.67184 q 7.978644,0 7.978644,5.86665 0,5.86665 -7.743978,5.86665 H 62.874495 q -7.743978,0 -7.743978,-5.86665 z m 2.933325,-24.40527 -9.151974,-22.52793 -9.269307,22.52793 z"
     id="path42984" /><path
     d="m 123.18348,251.8631 q 5.51465,0 9.38664,-1.29067 3.98932,-1.40799 5.63198,-2.93332 1.64266,-1.64266 3.28532,-2.93333 1.76,-1.40799 3.28533,-1.40799 2.34666,0 4.10665,1.75999 1.76,1.76 1.76,4.10666 0,5.04532 -8.09598,9.73864 -7.97864,4.69332 -19.71194,4.69332 -14.90129,0 -24.757265,-8.68264 -9.738639,-8.79998 -9.738639,-22.17594 v -7.74398 q 0,-14.07996 9.151974,-23.58393 9.15197,-9.50398 22.7626,-9.50398 8.21331,0 16.66129,3.98933 l 1.17333,0.46933 q 1.99466,-2.81599 4.92798,-2.81599 3.40266,0 4.57599,1.99466 1.29066,1.99466 1.29066,5.74931 v 9.85598 q 0,7.74397 -5.86665,7.74397 -2.11199,0 -3.51999,-1.17333 -1.29066,-1.17333 -1.64266,-2.11199 -0.23466,-1.056 -0.58666,-2.93332 -0.704,-3.51999 -4.34132,-5.63199 -3.51999,-2.22933 -6.57065,-2.81599 -3.05066,-0.58667 -5.63199,-0.58667 -8.9173,0 -14.78395,6.10132 -5.86665,5.98398 -5.86665,15.25329 v 7.50931 q 0,8.79998 6.21864,14.07996 6.33599,5.27999 16.89596,5.27999 z"
     style="fill:#004d79;fill-opacity:1"
     id="path42986" /><path
     d="m 216.46303,229.1005 q 7.86131,0 7.86131,5.86665 0,4.45865 -4.92798,5.86665 v 15.48795 q -7.86131,4.10666 -13.37597,5.63199 -5.51465,1.64266 -12.31996,1.64266 -7.97864,0 -14.31463,-1.87733 -6.33598,-1.99466 -10.09063,-5.04532 -3.75466,-3.05066 -6.21865,-7.15731 -2.464,-4.22399 -3.40266,-8.21331 -0.93866,-3.98932 -0.93866,-8.21331 v -8.33065 q 0,-13.72796 9.2693,-23.23193 9.38664,-9.62131 24.05327,-9.62131 9.50397,0 17.01328,3.75466 1.87733,-3.75466 4.81066,-3.75466 3.16799,0 4.34132,1.99467 1.17333,1.87732 1.17333,5.74931 v 9.15198 q 0,3.75465 -1.29067,5.74931 -1.17333,1.99466 -4.57598,1.99466 -0.82133,0 -1.64267,-0.11733 -0.70399,-0.23466 -1.17333,-0.46933 -0.46933,-0.352 -0.93866,-0.82133 -0.352,-0.46933 -0.704,-0.82133 -0.23466,-0.46933 -0.46933,-1.056 -0.23467,-0.704 -0.352,-1.056 -0.11733,-0.352 -0.352,-0.93866 -0.11733,-0.704 -0.11733,-0.93866 -0.93866,-3.05066 -5.04532,-4.81066 -4.10665,-1.87733 -10.55997,-1.87733 -9.85597,0 -15.83995,5.86665 -5.86665,5.74932 -5.86665,15.25329 v 7.50932 q 0,19.59461 22.52793,19.59461 8.09598,0 14.66663,-2.93333 v -8.09597 h -11.7333 q -7.74398,0 -7.74398,-5.86665 0,-3.40266 1.99466,-4.57599 1.99466,-1.29066 5.74932,-1.29066 z"
     style="fill:#004200"
     id="path42988" /></g><text
   xml:space="preserve"
   id="text34580"
   style="fill:black;fill-opacity:1;line-height:1.25;stroke:none;font-family:sans-serif;font-style:normal;font-weight:normal;font-size:40px;white-space:pre;shape-inside:url(#rect34582)" /></svg>
