<?xml version="1.0" encoding="UTF-8" standalone="no"?>
<!-- Created with Inkscape (http://www.inkscape.org/) -->

<svg
   width="512mm"
   height="512mm"
   viewBox="0 0 512 512"
   version="1.1"
   id="svg5"
   inkscape:version="1.1.2 (0a00cf5339, 2022-02-04)"
   sodipodi:docname="case-sensitive.svg"
   inkscape:export-filename="/home/farrell/gitprojects/snipgenie/svg/bar.png"
   inkscape:export-xdpi="25.4"
   inkscape:export-ydpi="25.4"
   xmlns:inkscape="http://www.inkscape.org/namespaces/inkscape"
   xmlns:sodipodi="http://sodipodi.sourceforge.net/DTD/sodipodi-0.dtd"
   xmlns="http://www.w3.org/2000/svg"
   xmlns:svg="http://www.w3.org/2000/svg">
  <sodipodi:namedview
     id="namedview7"
     pagecolor="#ffffff"
     bordercolor="#999999"
     borderopacity="1"
     inkscape:pageshadow="0"
     inkscape:pageopacity="0"
     inkscape:pagecheckerboard="0"
     inkscape:document-units="mm"
     showgrid="false"
     width="209mm"
     inkscape:zoom="0.22897889"
     inkscape:cx="213.99353"
     inkscape:cy="875.62657"
     inkscape:window-width="1866"
     inkscape:window-height="1016"
     inkscape:window-x="54"
     inkscape:window-y="27"
     inkscape:window-maximized="1"
     inkscape:current-layer="layer1" />
  <defs
     id="defs2">
    <rect
       x="65.508222"
       y="61.141007"
       width="1729.4171"
       height="1768.722"
       id="rect2579" />
  </defs>
  <g
     inkscape:label="Layer 1"
     inkscape:groupmode="layer"
     id="layer1">
    <text
       xml:space="preserve"
       transform="scale(0.26458333)"
       id="text2577"
       style="font-style:normal;font-weight:normal;font-size:40px;line-height:1.25;font-family:sans-serif;white-space:pre;shape-inside:url(#rect2579);fill:#000000;fill-opacity:1;stroke:none" />
    <g
       aria-label="A"
       transform="scale(0.9964248,1.003588)"
       id="text3619"
       style="font-size:533.822px;line-height:1.25;stroke-width:13.3455">
      <path
         d="m 390.89785,469.0748 v 13.34555 H 217.93951 V 469.0748 q 11.21026,-1.60147 17.08231,-1.60147 25.62345,-1.60146 25.62345,-17.61612 0,-16.01466 -24.55581,-72.5998 H 115.97951 l -8.00734,20.81906 q -15.480834,40.03665 -15.480834,49.11163 0,10.14261 10.142614,15.48083 10.14262,4.8044 33.63079,6.40587 v 13.34555 H 27.898872 V 469.0748 q 19.217592,-3.73676 27.758745,-14.4132 9.074974,-10.67644 24.555813,-48.04398 L 198.72192,114.08315 h 14.94702 l 119.04231,280.79039 q 19.75141,46.97634 29.89403,60.85571 10.67644,13.34555 26.15728,13.34555 z M 123.98684,356.43835 H 228.08213 L 174.16611,226.7196 Z"
         style="font-weight:bold;font-family:FreeSerif;-inkscape-font-specification:'FreeSerif, Bold'"
         id="path2471" />
    </g>
    <g
       aria-label="a"
       transform="scale(1.0006238,0.99937657)"
       id="text3619-4"
       style="font-size:460.881px;line-height:1.25;stroke-width:11.522">
      <path
         d="m 346.2565,49.689371 q 0,2.304405 6.91321,12.443787 6.91322,9.678501 6.91322,17.513479 0,11.982906 -8.75674,19.357002 -8.75674,7.374101 -22.58317,7.374101 -14.28731,0 -22.12229,-7.834982 -7.83498,-8.295858 -7.83498,-22.583169 0,-25.809337 23.96582,-41.940173 23.96581,-16.130835 63.14069,-16.130835 41.94018,0 66.36687,17.052597 24.88757,17.052598 24.88757,46.088102 v 120.28994 q 0,11.52203 9.67851,11.52203 3.22616,0 5.06969,-1.84352 l 4.60881,-4.60882 6.91321,9.67851 q -24.42669,26.27021 -51.61867,26.27021 -17.0526,0 -25.80934,-7.37409 -8.29586,-7.3741 -11.9829,-24.88758 -35.48784,32.26167 -72.8192,32.26167 -22.12229,0 -36.87048,-13.82643 -14.28732,-13.82643 -14.28732,-35.02695 0,-14.28731 7.3741,-26.27022 7.83498,-12.44379 17.97436,-20.27877 10.13938,-7.83497 27.65286,-15.66995 17.97436,-7.83498 30.41815,-11.98291 12.44378,-4.14793 32.72255,-10.13938 5.06969,-1.38264 7.83498,-2.3044 V 73.194302 q 0,-21.200526 -9.21762,-30.879027 -9.21762,-9.678502 -29.49639,-9.678502 -11.98291,0 -20.73964,5.069692 -8.29586,4.60881 -8.29586,11.982906 z M 413.54513,189.7972 v -66.82775 q -56.22749,14.74819 -56.22749,55.7666 0,13.82643 6.45234,22.58317 6.45233,8.29586 17.05259,8.29586 15.66996,0 32.72256,-19.81788 z"
         style="font-weight:bold;font-family:FreeSerif;-inkscape-font-specification:'FreeSerif, Bold'"
         id="path2492" />
    </g>
  </g>
</svg>
