<?xml version="1.0" encoding="UTF-8" standalone="no"?>
<!-- Created with Inkscape (http://www.inkscape.org/) -->

<svg
   width="1024"
   height="1024"
   viewBox="0 0 1024 1024"
   version="1.1"
   id="svg8"
   inkscape:version="1.1.2 (0a00cf5339, 2022-02-04)"
   sodipodi:docname="clear.svg"
   xmlns:inkscape="http://www.inkscape.org/namespaces/inkscape"
   xmlns:sodipodi="http://sodipodi.sourceforge.net/DTD/sodipodi-0.dtd"
   xmlns:xlink="http://www.w3.org/1999/xlink"
   xmlns="http://www.w3.org/2000/svg"
   xmlns:svg="http://www.w3.org/2000/svg"
   xmlns:rdf="http://www.w3.org/1999/02/22-rdf-syntax-ns#"
   xmlns:cc="http://creativecommons.org/ns#"
   xmlns:dc="http://purl.org/dc/elements/1.1/">
  <defs
     id="defs2">
    <clipPath
       clipPathUnits="userSpaceOnUse"
       id="clipPath942">
      <path
         inkscape:connector-curvature="0"
         id="path944"
         d="m 23.70493,29.953132 c 13.664981,6.855641 1.143893,22.437606 -17.834851,17.162808 -10.136601,-2.817284 -0.98336,1.733669 -0.98336,1.733669 0,0 4.73523,4.253357 13.356547,4.17353 8.621318,-0.07983 19.262593,-4.17353 19.262593,-4.17353 L 32.300781,29.9375 Z"
         style="fill:#ffc938;fill-opacity:1;stroke:none;stroke-width:1px;stroke-linecap:butt;stroke-linejoin:miter;stroke-opacity:1"
         sodipodi:nodetypes="cscsccc" />
    </clipPath>
    <linearGradient
       inkscape:collect="always"
       xlink:href="#linearGradient899"
       id="linearGradient901-6"
       x1="-15.756715"
       y1="50.285229"
       x2="-31.981113"
       y2="11.04461"
       gradientUnits="userSpaceOnUse" />
    <linearGradient
       inkscape:collect="always"
       id="linearGradient899">
      <stop
         style="stop-color:#000000;stop-opacity:1;"
         offset="0"
         id="stop895" />
      <stop
         style="stop-color:#000000;stop-opacity:0;"
         offset="1"
         id="stop897" />
    </linearGradient>
    <clipPath
       clipPathUnits="userSpaceOnUse"
       id="clipPath942-5">
      <path
         inkscape:connector-curvature="0"
         id="path944-6"
         d="m 23.70493,29.953132 c 13.664981,6.855641 1.143893,22.437606 -17.834851,17.162808 -10.136601,-2.817284 -0.98336,1.733669 -0.98336,1.733669 0,0 4.73523,4.253357 13.356547,4.17353 8.621318,-0.07983 19.262593,-4.17353 19.262593,-4.17353 L 32.300781,29.9375 Z"
         style="fill:#ffc938;fill-opacity:1;stroke:none;stroke-width:1px;stroke-linecap:butt;stroke-linejoin:miter;stroke-opacity:1"
         sodipodi:nodetypes="cscsccc" />
    </clipPath>
  </defs>
  <sodipodi:namedview
     id="base"
     pagecolor="#ffffff"
     bordercolor="#666666"
     borderopacity="1.0"
     inkscape:pageopacity="0.0"
     inkscape:pageshadow="2"
     inkscape:zoom="0.35"
     inkscape:cx="711.42857"
     inkscape:cy="541.42857"
     inkscape:document-units="px"
     inkscape:current-layer="layer1"
     showgrid="false"
     units="px"
     inkscape:window-width="1866"
     inkscape:window-height="1016"
     inkscape:window-x="54"
     inkscape:window-y="27"
     inkscape:window-maximized="1"
     inkscape:pagecheckerboard="0" />
  <metadata
     id="metadata5">
    <rdf:RDF>
      <cc:Work
         rdf:about="">
        <dc:format>image/svg+xml</dc:format>
        <dc:type
           rdf:resource="http://purl.org/dc/dcmitype/StillImage" />
      </cc:Work>
    </rdf:RDF>
  </metadata>
  <g
     inkscape:groupmode="layer"
     id="layer1"
     inkscape:label="Layer 1">
    <circle
       style="display:inline;opacity:1;vector-effect:none;fill:#ffffff;fill-opacity:1;fill-rule:evenodd;stroke:none;stroke-width:185.843;stroke-linecap:butt;stroke-linejoin:miter;stroke-miterlimit:4;stroke-dasharray:none;stroke-dashoffset:0;stroke-opacity:1;marker:none;marker-start:none;marker-mid:none;marker-end:none;paint-order:fill markers stroke"
       id="path877-1"
       cx="486.28574"
       cy="509.14282"
       rx="603.42859"
       ry="594.85712" />
    <path
       style="display:inline;opacity:1;vector-effect:none;fill:#ffffff;fill-opacity:1;fill-rule:evenodd;stroke:none;stroke-width:147.699;stroke-linecap:butt;stroke-linejoin:miter;stroke-miterlimit:4;stroke-dasharray:none;stroke-dashoffset:0;stroke-opacity:1"
       d="m 712.15893,75.431624 c -14.13557,-1.74591 -28.5888,4.81061 -36.18216,17.77581 L 598.54464,225.48195 571.2607,272.01316 v 0.0595 l -18.26783,31.1372 0.3536,0.17846 -7.60177,13.0125 -7.60179,13.0125 -98.76429,-56.23274 c -4.38401,-2.49543 -9.01646,-4.00606 -13.73036,-4.58902 -14.14164,-1.74888 -28.6083,4.7996 -36.18212,17.77582 l -55.98216,95.85112 -0.11762,-0.0595 c -503.82194,685.7134 393.50852,524.6032 443.90863,-260.07987 -2.2888,-9.18639 -8.13953,-17.47036 -17.14821,-22.597726 L 725.9482,80.020944 c -4.384,-2.49543 -9.0774,-4.00726 -13.78927,-4.58932 z"
       id="path987-8"
       inkscape:connector-curvature="0"
       sodipodi:nodetypes="ccccccccccsccccccc" />
    <g
       transform="matrix(16.103613,9.1653602,-9.2974259,15.874869,449.17075,-185.59467)"
       id="use873-7"
       style="display:inline;fill:url(#linearGradient901-6);fill-opacity:1">
      <rect
         style="opacity:1;vector-effect:none;fill:#000000;fill-opacity:1;fill-rule:evenodd;stroke:none;stroke-width:8;stroke-linecap:butt;stroke-linejoin:miter;stroke-miterlimit:4;stroke-dasharray:none;stroke-dashoffset:0;stroke-opacity:1"
         id="rect243"
         width="6.0562363"
         height="15.193717"
         x="18.168709"
         y="5.106328"
         rx="1.9656206"
         ry="1.9656206" />
      <rect
         style="opacity:1;vector-effect:none;fill:#000000;fill-opacity:1;fill-rule:evenodd;stroke:none;stroke-width:8;stroke-linecap:butt;stroke-linejoin:miter;stroke-miterlimit:4;stroke-dasharray:none;stroke-dashoffset:0;stroke-opacity:1"
         id="rect245"
         width="22.2062"
         height="6.5874848"
         x="10.093726"
         y="21.937542"
         rx="1.96562"
         ry="1.96562" />
      <path
         inkscape:connector-curvature="0"
         style="opacity:1;vector-effect:none;fill:#000000;fill-opacity:1;fill-rule:evenodd;stroke:none;stroke-width:8;stroke-linecap:butt;stroke-linejoin:miter;stroke-miterlimit:4;stroke-dasharray:none;stroke-dashoffset:0;stroke-opacity:1"
         d="m 10.09375,29.9375 c -0.1612638,8.271839 -2.8773742,13.350762 -5.2070312,18.912109 2.9125172,1.059983 5.7970882,1.76223 8.6582032,2.179688 L 16.363281,41.0625 16.564453,51.361328 C 23.655756,51.906261 30.612187,50.775071 37.505859,48.849609 33.592214,43.215682 32.560187,36.695808 32.300781,29.9375 Z"
         id="path247" />
      <path
         clip-path="url(#clipPath942-5)"
         id="path249"
         d="m 10.09375,29.9375 c -0.1612638,8.271839 -2.8773742,13.350762 -5.2070312,18.912109 2.9125172,1.059983 5.7970882,1.76223 8.6582032,2.179688 L 16.363281,41.0625 16.564453,51.361328 C 23.655756,51.906261 30.612187,50.775071 37.505859,48.849609 33.592214,43.215682 32.560187,36.695808 32.300781,29.9375 Z"
         style="opacity:1;vector-effect:none;fill:#978808;fill-opacity:0.117409;fill-rule:evenodd;stroke:none;stroke-width:8;stroke-linecap:butt;stroke-linejoin:miter;stroke-miterlimit:4;stroke-dasharray:none;stroke-dashoffset:0;stroke-opacity:1"
         inkscape:connector-curvature="0" />
      <path
         sodipodi:nodetypes="cscc"
         inkscape:connector-curvature="0"
         id="path251"
         d="m 21.387203,6.0549578 c 0,0 -1.631402,-0.5287286 -2.228415,0.049196 -0.541111,0.5238092 -0.0246,4.0881562 -0.0246,4.0881562 0.531108,-1.58527 -0.564752,-4.109386 2.253013,-4.137352 z"
         style="fill:#ffffff;stroke:none;stroke-width:1px;stroke-linecap:butt;stroke-linejoin:miter;stroke-opacity:1" />
      <rect
         y="15.404013"
         x="18.168709"
         height="4.8960323"
         width="6.0562363"
         id="rect253"
         style="opacity:1;vector-effect:none;fill:#000000;fill-opacity:1;fill-rule:evenodd;stroke:none;stroke-width:8;stroke-linecap:butt;stroke-linejoin:miter;stroke-miterlimit:4;stroke-dasharray:none;stroke-dashoffset:0;stroke-opacity:1" />
    </g>
  </g>
</svg>
