<?xml version="1.0" encoding="UTF-8" standalone="no"?>
<!-- Uploaded to: SVG Repo, www.svgrepo.com, Generator: SVG Repo Mixer Tools -->

<svg
   fill="#000000"
   version="1.1"
   id="Capa_1"
   viewBox="0 0 60 60"
   xml:space="preserve"
   sodipodi:docname="cluster_report.svg"
   inkscape:version="1.1.2 (0a00cf5339, 2022-02-04)"
   xmlns:inkscape="http://www.inkscape.org/namespaces/inkscape"
   xmlns:sodipodi="http://sodipodi.sourceforge.net/DTD/sodipodi-0.dtd"
   xmlns="http://www.w3.org/2000/svg"
   xmlns:svg="http://www.w3.org/2000/svg"><defs
   id="defs43">
		
		
		
		
		
		
		
		
		
		
		
		
		
		
		
		
		
	</defs><sodipodi:namedview
   id="namedview41"
   pagecolor="#ffffff"
   bordercolor="#999999"
   borderopacity="1"
   inkscape:pageshadow="0"
   inkscape:pageopacity="0"
   inkscape:pagecheckerboard="0"
   showgrid="false"
   inkscape:zoom="12.116667"
   inkscape:cx="27.977991"
   inkscape:cy="29.999999"
   inkscape:window-width="2560"
   inkscape:window-height="1300"
   inkscape:window-x="0"
   inkscape:window-y="0"
   inkscape:window-maximized="1"
   inkscape:current-layer="g38" />
<path
   style="fill:#f1f2ef;stroke:none;stroke-width:1px;stroke-linecap:butt;stroke-linejoin:miter;stroke-opacity:1;fill-opacity:1"
   d="m 11.5,2 v 56 h 33 l 10,-10 V 2 h -43"
   id="path872" /><ellipse
   style="fill:#34b0a5;fill-opacity:1;stroke:#000000;stroke-width:1.46786;stroke-linecap:round;stroke-linejoin:round;stroke-miterlimit:4;stroke-dasharray:none;stroke-opacity:1;paint-order:markers fill stroke"
   id="path2355-8"
   cx="17.7973"
   cy="28.117107"
   rx="2.7107348"
   ry="2.6477287" /><ellipse
   style="fill:#ead665;fill-opacity:0.668024;stroke:#000000;stroke-width:1.46786;stroke-linecap:round;stroke-linejoin:round;stroke-miterlimit:4;stroke-dasharray:none;stroke-opacity:1;paint-order:markers fill stroke"
   id="path2355-8-6"
   cx="22.310715"
   cy="22.079659"
   rx="2.7107348"
   ry="2.6477287" /><ellipse
   style="fill:#d72033;fill-opacity:1;stroke:#000000;stroke-width:1.46786;stroke-linecap:round;stroke-linejoin:round;stroke-miterlimit:4;stroke-dasharray:none;stroke-opacity:1;paint-order:markers fill stroke"
   id="path2355-5"
   cx="9.9428234"
   cy="37.040005"
   rx="2.7107348"
   ry="2.6477287" /><ellipse
   style="fill:#64c4cf;fill-opacity:1;stroke:#000000;stroke-width:1.46786;stroke-linecap:round;stroke-linejoin:round;stroke-miterlimit:4;stroke-dasharray:none;stroke-opacity:1;paint-order:markers fill stroke"
   id="path2355-5-0"
   cx="19.991556"
   cy="35.949028"
   rx="2.7107348"
   ry="2.6477287" /><g
   id="g38">
	<path
   d="M 56.5,49 V 49 1 c 0,-0.6 -0.4,-1 -1,-1 h -45 c -0.6,0 -1,0.4 -1,1 v 14 h 2 V 2 h 43 v 46 h -9 c -0.6,0 -1,0.4 -1,1 v 9 h -33 V 43 h -2 v 16 c 0,0.6 0.4,1 1,1 h 35 c 0.3,0 0.5,-0.1 0.7,-0.3 l 10,-10 c 0.1,-0.1 0.1,-0.2 0.2,-0.3 v -0.1 c 0.1,-0.1 0.1,-0.2 0.1,-0.3 z m -10,1 h 6.6 l -3.3,3.3 -3.3,3.3 z"
   id="path2" /><rect
   x="28.5"
   y="28"
   width="21"
   height="2"
   id="rect8" /><rect
   x="28.5"
   y="33"
   width="21"
   height="2"
   id="rect10" /><rect
   x="28.5"
   y="38"
   width="21"
   height="2"
   id="rect12" /><rect
   x="14.5"
   y="6"
   width="6"
   height="2"
   id="rect14" /><rect
   x="14.5"
   y="11"
   width="9"
   height="2"
   id="rect16" /><rect
   x="14.5"
   y="43"
   width="7"
   height="2"
   id="rect18" /><rect
   x="24.5"
   y="43"
   width="7"
   height="2"
   id="rect20" /><rect
   x="34.5"
   y="43"
   width="7"
   height="2"
   id="rect22" /><rect
   x="14.5"
   y="48"
   width="7"
   height="2"
   id="rect24" /><rect
   x="24.5"
   y="48"
   width="7"
   height="2"
   id="rect26" /><rect
   x="34.5"
   y="48"
   width="7"
   height="2"
   id="rect28" /><rect
   x="14.5"
   y="53"
   width="7"
   height="2"
   id="rect30" /><rect
   x="24.5"
   y="53"
   width="7"
   height="2"
   id="rect32" /><rect
   x="34.5"
   y="53"
   width="7"
   height="2"
   id="rect34" />
<path
   style="fill:#37b033;fill-opacity:1;stroke:#000000;stroke-width:1.95594;stroke-linecap:round;stroke-linejoin:miter;stroke-miterlimit:4;stroke-dasharray:none;stroke-opacity:1"
   d="m 32.596981,7.7571405 -1.670549,11.3779105 4.338644,3.809795 5.291579,-0.781804 -0.166035,2.633881 5.963822,-0.982249 0.304193,-6.755919 5.984932,-0.951696 L 50.186878,6.3807804 37.215558,4.086847 32.596981,7.7571405"
   id="path1033"
   sodipodi:nodetypes="ccccccccccc" /><ellipse
   style="fill:#dcb033;fill-opacity:1;stroke:#000000;stroke-width:1.44582;stroke-linecap:round;stroke-linejoin:round;stroke-miterlimit:4;stroke-dasharray:none;stroke-opacity:1;paint-order:markers fill stroke"
   id="path2355"
   cx="11.283216"
   cy="21.540577"
   rx="2.6270876"
   ry="2.6506097" /></g><ellipse
   style="fill:#3468dc;fill-opacity:1;stroke:#000000;stroke-width:1.46786;stroke-linecap:round;stroke-linejoin:round;stroke-miterlimit:4;stroke-dasharray:none;stroke-opacity:1;paint-order:markers fill stroke"
   id="path2355-8-4"
   cx="5.7700453"
   cy="27.704903"
   rx="2.7107348"
   ry="2.6477287" />
</svg>
