<?xml version="1.0" encoding="iso-8859-1"?>
<!-- Uploaded to: SVG Repo, www.svgrepo.com, Generator: SVG Repo Mixer Tools -->
<svg height="800px" width="800px" version="1.1" id="Layer_1" xmlns="http://www.w3.org/2000/svg" xmlns:xlink="http://www.w3.org/1999/xlink" 
	 viewBox="0 0 511.998 511.998" xml:space="preserve">
<path style="fill:#FFEBD2;" d="M489.148,10.564c0,0-6.905,46.193-16.494,63.519c-8.767,15.837-95.713,23.005-95.713,23.005
	l3.579,11.354c-7.324-10.361-17.721-19.163-29.999-24.589c-22.239-9.83-60.9-14.496-94.56-14.496s-72.321,4.666-94.56,14.496
	c-12.504,5.526-23.058,14.553-30.4,25.163l4.057-11.928c0,0-86.947-7.168-95.713-23.005C29.755,56.758,22.85,10.564,22.85,10.564
	s-27.943,63.26-7.163,87.61c19.641,23.014,103.296,46.172,103.296,46.172l0.911-2.679c-0.014,1.229,0.007,2.457,0.089,3.678
	l0.005-0.003c0.406,28.297,19.817,237.544,57.187,316.451l2.071-0.356l-0.139,0.576c-4.839,20.137,10.532,39.46,31.242,39.272
	l93.537,0.15c20.709-0.188,35.727-19.789,30.522-39.832l-0.304-1.17l0.645,1.362c37.369-78.908,56.781-288.155,57.187-316.451
	l0.005,0.003c0.027-0.398,0.034-0.798,0.051-1.197c4.358-1.195,85.212-23.583,104.321-45.974
	C517.093,73.823,489.148,10.564,489.148,10.564z"/>
<path style="fill:#EBB4A0;" d="M328.987,438.454l-10.693-18.201c-5.217-8.882-14.615-14.315-24.756-14.315h-73.533
	c-10.141,0-19.539,5.434-24.756,14.315l-10.693,18.201c-6.392,10.879-5.544,23.327-5.544,36.015
	c0,15.146,12.022,27.423,26.852,27.423h100.272c14.831,0,26.852-12.278,26.852-27.423
	C332.987,461.781,335.378,449.333,328.987,438.454z"/>
<path style="fill:#FFDEB7;" d="M380.521,108.443c-3.191-4.516-6.969-8.735-11.229-12.508c-5.276-3.277-12.247-6.494-20.158-9.565
	c-1.259-1.522-2.614-3.097-4.039-4.69c-22.743-8.343-58.062-12.321-89.133-12.321c-31.019,0-66.273,3.966-89.02,12.28
	c-1.44,1.607-2.807,3.196-4.076,4.731c-8.035,3.119-15.102,6.388-20.406,9.718c-4.37,3.894-8.227,8.257-11.459,12.928l1.447-4.255
	c-10.953,12.056-12.245,20.185-12.398,37.046c10.966,0.51,24.647,1.078,31.162,1.078c48.797,0,89.781-22.812,103.688-32.938
	l-7.707,32.066c25.328-0.23,70.452-22.638,79.693-32.722l8.29,31.922c24.809-16.192,24.809-24.191,24.809-24.191
	s16.168,0.019,30.811,8.87c-1.396-7.661-4.483-13.746-11.532-21.446L380.521,108.443z"/>
<g>
	<path style="fill:#6B676E;" d="M120.502,128.02c-0.596,4.48-0.761,9.625-1.402,15.856c-2.383,23.188,20.792,174.854,34.589,256.209
		c0,0,49.562-82.008,50.667-97.967C205.461,286.177,222.239,159.304,120.502,128.02z"/>
	<path style="fill:#6B676E;" d="M390.529,128.02c0.595,4.48,0.251,9.698,1.401,15.856c4.33,23.19-18.643,174.857-34.589,256.209
		c0,0-49.562-82.008-50.667-97.967C305.57,286.177,288.792,159.304,390.529,128.02z"/>
</g>
<g>
	<path style="fill:#464655;" d="M71.305,176.766c-13.927,0.126-63.465,22.463-63.303,40.368
		c0.16,17.582,85.025,67.647,117.761,17.69l-6.566-42.577C99.392,202.377,85.231,176.639,71.305,176.766z"/>
	<path style="fill:#464655;" d="M439.895,173.924c-13.927,0.127-27.618,26.117-47.603,16.35l-5.791,42.69
		c33.639,49.352,117.58-2.247,117.42-19.829C503.758,195.23,453.821,173.799,439.895,173.924z"/>
</g>
<path d="M167.12,216.128c-0.024,0-0.122,0-0.146,0.001c-8.799,0.08-15.891,7.303-15.81,16.101
	c0.079,8.719,7.237,15.812,15.955,15.812c0.024,0,0.122,0,0.146-0.001c4.262-0.039,8.254-1.735,11.24-4.776
	c2.987-3.042,4.61-7.063,4.571-11.325C182.996,223.221,175.839,216.128,167.12,216.128z M167.119,233.137v-1.092l0.007,7.999
	L167.119,233.137z"/>
<path d="M342.196,214.537c-0.024,0-0.123,0-0.147,0.001c-4.262,0.039-8.254,1.735-11.24,4.775c-2.987,3.042-4.61,7.064-4.571,11.326
	c0.079,8.719,7.237,15.811,15.954,15.811c0.024,0,0.123,0,0.147-0.001c8.799-0.08,15.891-7.303,15.81-16.101
	C358.072,221.63,350.915,214.537,342.196,214.537z M342.193,238.452v-7.999h0.001L342.193,238.452z"/>
<path d="M480.827,179.707c-12.914-6.872-31.023-13.782-40.818-13.782c-0.062,0-0.125,0-0.187,0.001
	c-8.058,0.073-14.812,5.082-21.344,9.925c-8.642,6.408-14.483,10.329-21.271,7.836c1.35-14.805,2.197-26.403,2.547-33.409
	c20.852-5.98,84.423-25.566,102.641-46.913c10.357-12.137,12.349-32.305,5.918-59.942c-4.506-19.369-11.55-35.419-11.848-36.092
	c-1.438-3.256-4.855-5.168-8.384-4.696c-3.528,0.475-6.318,3.224-6.844,6.745c-1.861,12.451-8.289,47.651-15.548,60.772
	c-0.192,0.279-5.179,6.896-46.269,13.609c-21.938,3.584-42.926,5.337-43.136,5.355c-0.746,0.062-1.456,0.23-2.125,0.479
	c-6.025-5.27-12.894-9.738-20.404-13.059c-25.319-11.19-67.118-15.179-97.794-15.179c-30.675,0-72.474,3.988-97.795,15.179
	c-7.502,3.315-14.363,7.777-20.383,13.04c-0.653-0.237-1.344-0.4-2.07-0.46c-0.209-0.018-21.197-1.771-43.136-5.355
	c-41.088-6.711-46.075-13.328-46.234-13.551C39.058,57.048,32.625,21.837,30.761,9.381c-0.527-3.52-3.316-6.27-6.845-6.744
	c-3.529-0.479-6.945,1.439-8.383,4.695C15.236,8.006,8.192,24.057,3.686,43.425c-6.431,27.637-4.439,47.805,5.918,59.942
	c18.551,21.737,83.3,41.768,102.587,47.363c0.377,7.33,1.271,19.388,2.685,34.704c-7.044,3.18-13.06-0.661-22.122-7.13
	c-6.619-4.725-13.483-9.606-21.52-9.536c-9.751,0.088-27.879,7.374-40.747,14.524c-20.328,11.296-30.582,22.706-30.48,33.915
	c0.142,15.642,29.836,35.23,56.397,43.026c9.442,2.772,18.438,4.134,26.832,4.134c15.302,0,28.574-4.556,38.854-13.346
	c9.331,73.732,25.194,166.336,47.859,214.196c0.129,0.273,0.284,0.524,0.439,0.776c-0.898,10.047,2.025,20.04,8.389,28.115
	c7.603,9.645,19.001,15.178,31.275,15.178l0.287-0.001l93.537,0.149c0.003,0,0.007,0,0.011,0c0.025,0,0.05,0,0.075,0
	c12.351-0.112,23.742-5.799,31.255-15.602c6.753-8.814,9.463-19.788,7.69-30.601c22.398-48.895,38.047-141.349,47.214-214.43
	c10.171,8.534,23.159,12.942,38.051,12.942c8.789,0,18.236-1.529,28.146-4.634c26.415-8.278,55.747-28.402,55.605-44.044
	C511.816,201.854,501.356,190.632,480.827,179.707z M119.073,230.441c-12.315,18.794-33.072,19.497-48.311,16.778
	c-12.515-2.233-26.358-7.725-37.978-15.068c-11.477-7.252-16.188-13.312-16.778-15.277c0.211-3.094,6.205-10.684,22.248-19.6
	c14.575-8.099,28.6-12.47,33.122-12.511c2.854-0.046,7.757,3.473,12.081,6.561c8.416,6.007,19.529,13.93,33.006,10.479
	c0.886,8.707,1.902,18.109,3.052,28.028C119.362,230.027,119.212,230.229,119.073,230.441z M112.478,134.132
	c-26.861-8.079-77.515-25.694-90.706-41.15c-8.815-10.327-6.095-32.306-1.147-51.187c2.987,13.223,7.007,27.644,11.721,36.161
	c3.423,6.186,12.978,14.215,56.839,21.46c13.745,2.271,26.954,3.82,35.515,4.715C118.258,113.34,113.968,123.666,112.478,134.132z
	 M322.514,484.101c-4.487,5.856-11.287,9.257-18.661,9.336l-93.578-0.149l-0.227,0.001c-7.342,0-14.161-3.31-18.71-9.082
	c-4.547-5.77-6.171-13.178-4.454-20.323l6.216-25.863c1.072-4.457,2.987-8.508,5.536-11.988c0.559,2.821,1.574,5.364,2.842,7.386
	c2.254,3.594,5.557,6.593,8.752,9.493c2.292,2.081,6.557,5.953,6.754,7.45c-0.003,0.016-0.431,1.609-4.592,4.508
	c-3.624,2.526-4.516,7.511-1.991,11.136c1.555,2.231,4.041,3.426,6.57,3.426c1.579,0,3.172-0.466,4.565-1.437
	c7.286-5.076,11.017-10.498,11.408-16.576c0.577-8.968-6.376-15.28-11.963-20.352c-2.393-2.173-4.867-4.418-5.951-6.147
	c-0.849-1.354-1.364-4.557-0.121-7.05c1.616-3.241,5.854-4.355,9.294-4.707l63.22,0.395c3.5,0.249,7.99,1.247,9.72,4.564
	c1.288,2.47,0.832,5.682,0.007,7.051c-1.049,1.743-3.351,3.986-5.578,6.156c-5.319,5.183-11.939,11.634-11.125,20.542
	c0.557,6.099,4.449,11.49,11.897,16.48c1.367,0.916,2.915,1.355,4.445,1.355c2.579,0,5.109-1.245,6.652-3.547
	c2.459-3.669,1.478-8.639-2.193-11.097c-4.391-2.941-4.867-4.628-4.87-4.628c0.076-1.525,4.319-5.66,6.359-7.647
	c2.953-2.878,6.006-5.853,8.119-9.362c1.297-2.155,2.295-4.888,2.776-7.902c2.937,3.556,5.149,7.742,6.345,12.345l6.686,25.746
	C328.523,470.767,327.009,478.234,322.514,484.101z M383.929,145.622c-0.518,24.131-16.64,202.044-47.711,291.133l-0.755-2.91
	c-5.459-21.024-25.112-36.282-46.728-36.282l-0.337,0.001l-64.116-0.4c-0.157-0.007-0.315-0.006-0.474-0.003l-0.567-0.004
	c-0.041,0-0.082,0-0.123,0c-21.624,0.196-40.363,15.461-45.57,37.123l-1.1,4.576c-31.885-89.279-48.271-272.688-48.465-293.951
	c-0.002-0.253-0.019-0.503-0.044-0.75c-1.02-20.556,14.637-43.237,36.697-52.988c18.985-8.392,54.833-13.814,91.327-13.814
	s72.342,5.422,91.326,13.813c21.391,9.455,36.761,31.068,36.745,51.111C383.767,143.348,383.723,144.483,383.929,145.622z
	 M387.228,104.139c8.56-0.892,21.803-2.446,35.586-4.722c43.86-7.246,53.414-15.274,56.839-21.46
	c4.713-8.516,8.734-22.94,11.721-36.161c4.949,18.882,7.668,40.858-1.147,51.186c-13.034,15.272-63.378,32.586-90.84,40.737
	C397.843,123.397,393.582,113.224,387.228,104.139z M479.416,228.601c-11.485,7.553-25.225,13.296-37.698,15.755
	c-15.188,2.996-35.952,2.67-48.609-15.897c-0.149-0.218-0.308-0.426-0.474-0.625c1.14-9.915,2.146-19.295,3.016-27.953
	c13.328,2.918,24.142-5.09,32.355-11.18c4.269-3.165,9.107-6.753,11.961-6.779c0.023,0,0.045,0,0.068,0
	c4.594,0,18.63,4.112,33.276,11.906c16.203,8.623,22.333,16.101,22.601,19.193C495.359,214.997,490.759,221.141,479.416,228.601z"/>
<path d="M331.091,116.673c2.984-3.256,2.765-8.317-0.493-11.301c-3.256-2.985-8.316-2.765-11.301,0.493
	c-6.188,6.753-39.075,24.023-62.953,28.75l5.005-20.827c0.784-3.258-0.548-6.661-3.335-8.522c-2.788-1.862-6.44-1.787-9.149,0.186
	c-12.248,8.918-61.942,30.908-98.529,31.241c-4.417,0.04-7.966,3.653-7.926,8.071c0.04,4.393,3.612,7.927,7.997,7.927
	c0.024,0,0.05,0,0.074-0.001c30.51-0.277,68.297-13.848,91.038-24.849l-3.392,14.114c-0.576,2.396-0.016,4.921,1.518,6.849
	c1.534,1.928,3.866,3.087,6.332,3.019C274.082,151.566,320.9,127.792,331.091,116.673z"/>
<path d="M333.448,151.027c1.594,0,3.204-0.476,4.605-1.465c7.124-5.027,16.343-16.289,17.372-17.558
	c2.783-3.431,2.257-8.468-1.175-11.25c-3.43-2.782-8.468-2.255-11.25,1.175c-2.244,2.768-9.664,11.382-14.171,14.564
	c-3.609,2.548-4.469,7.539-1.922,11.147C328.465,149.848,330.936,151.027,333.448,151.027z"/>
</svg>