<?xml version="1.0" encoding="UTF-8" standalone="no"?>
<!-- Uploaded to: SVG Repo, www.svgrepo.com, Generator: SVG Repo Mixer Tools -->

<svg
   fill="#000000"
   version="1.1"
   id="Capa_1"
   viewBox="0 0 60 60"
   xml:space="preserve"
   sodipodi:docname="filter.svg"
   inkscape:version="1.1.2 (0a00cf5339, 2022-02-04)"
   xmlns:inkscape="http://www.inkscape.org/namespaces/inkscape"
   xmlns:sodipodi="http://sodipodi.sourceforge.net/DTD/sodipodi-0.dtd"
   xmlns:xlink="http://www.w3.org/1999/xlink"
   xmlns="http://www.w3.org/2000/svg"
   xmlns:svg="http://www.w3.org/2000/svg"><defs
   id="defs43">
		
		
		
		
		
		
		
		
		
		
		
		
		
		
		
		
		
	<linearGradient
   inkscape:collect="always"
   xlink:href="#linearGradient3004"
   id="linearGradient3006"
   x1="252.93021"
   y1="49.706955"
   x2="273.48578"
   y2="459.86499"
   gradientUnits="userSpaceOnUse"
   gradientTransform="matrix(0.05804292,0,0,0.05246928,29.892681,29.917258)" /><linearGradient
   inkscape:collect="always"
   id="linearGradient3004"><stop
     style="stop-color:#a5a6a9;stop-opacity:1"
     offset="0"
     id="stop3000" /><stop
     style="stop-color:#bdd0e1;stop-opacity:1"
     offset="1"
     id="stop3002" /></linearGradient></defs><sodipodi:namedview
   id="namedview41"
   pagecolor="#ffffff"
   bordercolor="#999999"
   borderopacity="1"
   inkscape:pageshadow="0"
   inkscape:pageopacity="0"
   inkscape:pagecheckerboard="0"
   showgrid="false"
   inkscape:zoom="8.5677774"
   inkscape:cx="30.813125"
   inkscape:cy="38.224616"
   inkscape:window-width="2500"
   inkscape:window-height="1308"
   inkscape:window-x="0"
   inkscape:window-y="0"
   inkscape:window-maximized="1"
   inkscape:current-layer="Capa_1" />
<path
   style="fill:#dde0df;fill-opacity:1;stroke:none;stroke-width:0.755357px;stroke-linecap:butt;stroke-linejoin:miter;stroke-opacity:1"
   d="M 5.7861074,3.7964236 V 38.916094 H 35.809235 l 9.097918,-6.271369 V 3.7964236 H 5.7861074"
   id="path872" /><g
   id="g38"
   transform="matrix(2.2238049,0,0,2.2223862,-139.08434,21.09894)"
   style="fill:#0b0f0b;fill-opacity:1">
	
<path
   d="m 80.598241,13.385548 2,1.966667 c 0.555555,0.555555 1.333333,0.111111 1.333333,-0.544445 v -4.755555 l 3.111111,-3.7777778 c 0.555556,-0.777778 0,-1.777778 -0.888889,-1.777778 h -7.777777 c -0.888889,0 -1.444445,1.111111 -0.888889,1.777778 l 3.111111,3.7777778 v 3.333333 M 75.042685,2.2744372 h 8.888889 v -8.8888891 c 0,-1.2222222 -0.988889,-2.2222222 -2.222222,-2.2222222 H 66.153796 c -1.222222,0 -2.222222,1 -2.222222,2.2222222 V 6.7188822 c 0,1.233333 1,2.222222 2.222222,2.222222 h 10.466667 l -1.577778,-2.222222 v -4.444445 m 0,-6.6666664 h 6.666667 V 0.05221523 H 75.042685 V -4.3922292 M 72.820463,6.7188822 h -6.666667 v -4.444445 h 6.666667 v 4.444445 m 0,-6.66666697 H 66.153796 V -4.3922292 h 6.666667 z"
   id="path2-6"
   style="fill:#0b0f0b;fill-opacity:1;stroke-width:1.11111"
   sodipodi:nodetypes="ccsccsscccccsssssscccccccccccccccccc" /></g><path
   id="rect1058"
   style="fill:url(#linearGradient3006);fill-opacity:1;stroke:#0d1013;stroke-width:2.87;stroke-linecap:round;stroke-linejoin:round;stroke-miterlimit:4;stroke-dasharray:none;paint-order:markers fill stroke"
   d="m 31.581207,31.785245 h 26.205959 l -0.02304,3.225511 -10.201019,10.428088 -1.000441,9.981708 -4.668887,-1.286205 -0.605022,-8.519419 -9.63251,-10.78943 z"
   sodipodi:nodetypes="ccccccccc" />
</svg>
