<?xml version="1.0" encoding="UTF-8" standalone="no"?>
<svg
   viewBox="0 0 128 128"
   width="256px"
   height="256px"
   version="1.1"
   id="svg18"
   sodipodi:docname="lock.svg"
   inkscape:version="1.1.2 (0a00cf5339, 2022-02-04)"
   xmlns:inkscape="http://www.inkscape.org/namespaces/inkscape"
   xmlns:sodipodi="http://sodipodi.sourceforge.net/DTD/sodipodi-0.dtd"
   xmlns="http://www.w3.org/2000/svg"
   xmlns:svg="http://www.w3.org/2000/svg">
  <defs
     id="defs22" />
  <sodipodi:namedview
     id="namedview20"
     pagecolor="#ffffff"
     bordercolor="#999999"
     borderopacity="1"
     inkscape:pageshadow="0"
     inkscape:pageopacity="0"
     inkscape:pagecheckerboard="0"
     showgrid="false"
     inkscape:zoom="2.9335938"
     inkscape:cx="127.82956"
     inkscape:cy="128"
     inkscape:window-width="1866"
     inkscape:window-height="1016"
     inkscape:window-x="54"
     inkscape:window-y="27"
     inkscape:window-maximized="1"
     inkscape:current-layer="svg18" />
  <path
     fill="#c7d6e2"
     d="M 105.90203,120.96075 H 28.588243 c -2.964769,0 -5.369014,-2.40099 -5.369014,-5.36176 V 59.836763 c 0,-2.960761 2.404245,-5.361754 5.369014,-5.361754 h 77.313787 c 2.96477,0 5.36902,2.400993 5.36902,5.361754 v 55.762227 c 0,2.96077 -2.40425,5.36176 -5.36902,5.36176 z"
     id="path2"
     style="stroke-width:1.07308" />
  <path
     fill="#e7ecf3"
     d="m 28.588243,54.475009 c -2.964769,0 -5.369014,2.400993 -5.369014,5.361754 V 87.717879 H 111.27105 V 59.836763 c 0,-2.960761 -2.40425,-5.361754 -5.36902,-5.361754 z"
     id="path4"
     style="stroke-width:1.07308" />
  <path
     fill="#f8e390"
     d="m 102.68063,41.606801 c 0,-19.54359 -15.865441,-35.3875718 -35.435493,-35.3875718 -19.570053,0 -35.435487,15.8439818 -35.435487,35.3875718 V 54.475009 H 44.695281 V 41.606801 c 0,-12.437123 10.095893,-22.519364 22.549856,-22.519364 12.453963,0 22.549855,10.082241 22.549855,22.519364 v 12.868208 h 12.885638 z"
     id="path6"
     style="stroke-width:1.07308" />
  <path
     fill="#f6e5ab"
     d="m 67.245137,69.487918 a 18.254645,18.229961 0 1 0 0,36.459922 18.254645,18.229961 0 1 0 0,-36.459922 z"
     id="path8"
     style="stroke-width:1.07308" />
  <path
     fill="#cd928d"
     d="m 67.245137,79.139074 a 8.590421,8.5788053 0 1 0 0,17.15761 8.590421,8.5788053 0 1 0 0,-17.15761 z"
     id="path10"
     style="stroke-width:1.07308" />
  <path
     fill="none"
     stroke="#444b54"
     stroke-linejoin="round"
     stroke-miterlimit="10"
     stroke-width="6.43846"
     d="M 105.90203,120.96075 H 28.588243 c -2.964769,0 -5.369014,-2.40099 -5.369014,-5.36176 V 59.836763 c 0,-2.960761 2.404245,-5.361754 5.369014,-5.361754 h 77.313787 c 2.96477,0 5.36902,2.400993 5.36902,5.361754 v 55.762227 c 0,2.96077 -2.40425,5.36176 -5.36902,5.36176 z"
     id="path12"
     style="stroke:#302c35;stroke-opacity:1" />
  <path
     fill="none"
     stroke="#444b54"
     stroke-linecap="round"
     stroke-linejoin="round"
     stroke-miterlimit="10"
     stroke-width="6.43846"
     d="m 49.795844,82.356126 c -0.521868,1.695386 -0.805352,3.495863 -0.805352,5.361753 0,10.068301 8.172712,18.229961 18.254645,18.229961 10.081933,0 18.254645,-8.16166 18.254645,-18.229961 0,-10.0683 -8.172712,-18.229961 -18.254645,-18.229961 -1.868416,0 -3.671332,0.2831 -5.369014,0.804263 M 44.695281,44.823853 v -3.217052 c 0,-12.437123 10.095893,-22.519364 22.549856,-22.519364 12.453963,0 22.549855,10.082241 22.549855,22.519364 v 3.217052"
     id="path14"
     style="stroke:#2d2d32;stroke-opacity:1" />
  <path
     fill="none"
     stroke="#444b54"
     stroke-linecap="round"
     stroke-linejoin="round"
     stroke-miterlimit="10"
     stroke-width="6.43846"
     d="m 31.80965,44.823853 v -3.217052 c 0,-19.54359 15.865434,-35.3875718 35.435487,-35.3875718 19.570052,0 35.435493,15.8439818 35.435493,35.3875718 v 3.217052"
     id="path16"
     style="stroke:#23241f;stroke-opacity:1" />
</svg>
