<?xml version="1.0" encoding="UTF-8" standalone="no"?>
<!-- Created with Inkscape (http://www.inkscape.org/) -->

<svg
   width="512mm"
   height="512mm"
   viewBox="0 0 512 512"
   version="1.1"
   id="svg5"
   inkscape:version="1.1.2 (0a00cf5339, 2022-02-04)"
   sodipodi:docname="plot-region.svg"
   inkscape:export-filename="/home/farrell/gitprojects/snipgenie/svg/bar.png"
   inkscape:export-xdpi="25.4"
   inkscape:export-ydpi="25.4"
   xmlns:inkscape="http://www.inkscape.org/namespaces/inkscape"
   xmlns:sodipodi="http://sodipodi.sourceforge.net/DTD/sodipodi-0.dtd"
   xmlns="http://www.w3.org/2000/svg"
   xmlns:svg="http://www.w3.org/2000/svg">
  <sodipodi:namedview
     id="namedview7"
     pagecolor="#ffffff"
     bordercolor="#999999"
     borderopacity="1"
     inkscape:pageshadow="0"
     inkscape:pageopacity="0"
     inkscape:pagecheckerboard="0"
     inkscape:document-units="mm"
     showgrid="false"
     width="209mm"
     inkscape:zoom="0.32382505"
     inkscape:cx="588.28062"
     inkscape:cy="1230.6028"
     inkscape:window-width="2560"
     inkscape:window-height="1300"
     inkscape:window-x="0"
     inkscape:window-y="0"
     inkscape:window-maximized="1"
     inkscape:current-layer="layer1" />
  <defs
     id="defs2">
    <inkscape:path-effect
       effect="simplify"
       id="path-effect1348"
       is_visible="true"
       lpeversion="1"
       steps="1"
       threshold="0.000408163"
       smooth_angles="360"
       helper_size="0"
       simplify_individual_paths="false"
       simplify_just_coalesce="false" />
  </defs>
  <g
     inkscape:label="Layer 1"
     inkscape:groupmode="layer"
     id="layer1">
    <path
       style="fill:#f3f5f4;fill-opacity:1;stroke:#000000;stroke-width:17.278;stroke-linecap:butt;stroke-linejoin:miter;stroke-miterlimit:4;stroke-dasharray:103.668, 17.278;stroke-dashoffset:32.8282;stroke-opacity:1"
       d="M 17.74704,15.053827 V 497.90704 l 477.11456,1.41597 -2.05088,-487.00054 z"
       id="path1249"
       sodipodi:nodetypes="ccccc" />
    <path
       style="fill:#84e0fc;fill-opacity:1;stroke:#000300;stroke-width:0;stroke-linecap:round;stroke-miterlimit:4;stroke-dasharray:none"
       id="path1909"
       sodipodi:type="arc"
       sodipodi:cx="151.05728"
       sodipodi:cy="408.43134"
       sodipodi:rx="40.913826"
       sodipodi:ry="39.167801"
       sodipodi:start="5.9104179"
       sodipodi:end="5.8780944"
       sodipodi:open="true"
       sodipodi:arc-type="arc"
       d="m 189.16127,394.16665 a 40.913826,39.167801 0 0 1 -22.89599,50.6261 40.913826,39.167801 0 0 1 -53.0662,-21.50907 40.913826,39.167801 0 0 1 22.03835,-50.97372 40.913826,39.167801 0 0 1 53.42238,20.68525" />
    <path
       style="fill:#0000a0;fill-opacity:1;stroke:#000300;stroke-width:0;stroke-linecap:round;stroke-miterlimit:4;stroke-dasharray:none"
       id="path1909-6"
       sodipodi:type="arc"
       sodipodi:cx="374.73547"
       sodipodi:cy="106.48997"
       sodipodi:rx="40.913826"
       sodipodi:ry="39.167801"
       sodipodi:start="5.9104179"
       sodipodi:end="5.8780944"
       sodipodi:open="true"
       sodipodi:arc-type="arc"
       d="M 412.83946,92.225282 A 40.913826,39.167801 0 0 1 389.94347,142.85138 40.913826,39.167801 0 0 1 336.87727,121.34231 40.913826,39.167801 0 0 1 358.91562,70.36859 40.913826,39.167801 0 0 1 412.338,91.053846" />
    <path
       style="fill:#8414a8;fill-opacity:1;stroke:#009700;stroke-width:0;stroke-linecap:round;stroke-miterlimit:4;stroke-dasharray:none;stroke-opacity:1"
       id="path1909-7"
       sodipodi:type="arc"
       sodipodi:cx="183.26506"
       sodipodi:cy="187.93564"
       sodipodi:rx="40.913826"
       sodipodi:ry="39.167801"
       sodipodi:start="5.9104179"
       sodipodi:end="5.8780944"
       sodipodi:open="true"
       sodipodi:arc-type="arc"
       d="m 221.36905,173.67095 a 40.913826,39.167801 0 0 1 -22.89599,50.6261 40.913826,39.167801 0 0 1 -53.0662,-21.50907 40.913826,39.167801 0 0 1 22.03835,-50.97372 40.913826,39.167801 0 0 1 53.42238,20.68526" />
    <path
       style="fill:#3ea3ee;fill-opacity:1;stroke:#009700;stroke-width:0;stroke-linecap:round;stroke-miterlimit:4;stroke-dasharray:none;stroke-opacity:1"
       id="path1909-7-5"
       sodipodi:type="arc"
       sodipodi:cx="319.33743"
       sodipodi:cy="380.26807"
       sodipodi:rx="40.913826"
       sodipodi:ry="39.167801"
       sodipodi:start="5.9104179"
       sodipodi:end="5.8780944"
       sodipodi:open="true"
       sodipodi:arc-type="arc"
       d="m 357.44142,366.00338 a 40.913826,39.167801 0 0 1 -22.89599,50.6261 40.913826,39.167801 0 0 1 -53.0662,-21.50907 40.913826,39.167801 0 0 1 22.03835,-50.97372 40.913826,39.167801 0 0 1 53.42238,20.68526" />
    <path
       style="fill:#3928ac;fill-opacity:1;stroke:#009700;stroke-width:0;stroke-linecap:round;stroke-miterlimit:4;stroke-dasharray:none;stroke-opacity:1"
       id="path1909-7-8"
       sodipodi:type="arc"
       sodipodi:cx="408.84723"
       sodipodi:cy="255.53024"
       sodipodi:rx="40.913826"
       sodipodi:ry="39.167801"
       sodipodi:start="5.9104179"
       sodipodi:end="5.8780944"
       sodipodi:open="true"
       sodipodi:arc-type="arc"
       d="m 446.95122,241.26556 a 40.913826,39.167801 0 0 1 -22.89599,50.6261 40.913826,39.167801 0 0 1 -53.0662,-21.50907 40.913826,39.167801 0 0 1 22.03835,-50.97372 40.913826,39.167801 0 0 1 53.42238,20.68525" />
  </g>
</svg>
