<?xml version="1.0" encoding="UTF-8" standalone="no"?>
<!-- Created with Inkscape (http://www.inkscape.org/) -->

<svg
   width="512mm"
   height="512mm"
   viewBox="0 0 512 512"
   version="1.1"
   id="svg5"
   inkscape:version="1.1.2 (0a00cf5339, 2022-02-04)"
   sodipodi:docname="plot-centroid.svg"
   inkscape:export-filename="/home/farrell/gitprojects/snipgenie/svg/bar.png"
   inkscape:export-xdpi="25.4"
   inkscape:export-ydpi="25.4"
   xmlns:inkscape="http://www.inkscape.org/namespaces/inkscape"
   xmlns:sodipodi="http://sodipodi.sourceforge.net/DTD/sodipodi-0.dtd"
   xmlns="http://www.w3.org/2000/svg"
   xmlns:svg="http://www.w3.org/2000/svg">
  <sodipodi:namedview
     id="namedview7"
     pagecolor="#ffffff"
     bordercolor="#999999"
     borderopacity="1"
     inkscape:pageshadow="0"
     inkscape:pageopacity="0"
     inkscape:pagecheckerboard="0"
     inkscape:document-units="mm"
     showgrid="false"
     width="209mm"
     inkscape:zoom="0.32382505"
     inkscape:cx="515.71057"
     inkscape:cy="1232.1468"
     inkscape:window-width="2504"
     inkscape:window-height="1305"
     inkscape:window-x="0"
     inkscape:window-y="0"
     inkscape:window-maximized="1"
     inkscape:current-layer="layer1" />
  <defs
     id="defs2">
    <inkscape:path-effect
       effect="simplify"
       id="path-effect1348"
       is_visible="true"
       lpeversion="1"
       steps="1"
       threshold="0.000408163"
       smooth_angles="360"
       helper_size="0"
       simplify_individual_paths="false"
       simplify_just_coalesce="false" />
  </defs>
  <g
     inkscape:label="Layer 1"
     inkscape:groupmode="layer"
     id="layer1">
    <path
       style="fill:#84e0fc;fill-opacity:1;stroke:#000300;stroke-width:0;stroke-linecap:round;stroke-miterlimit:4;stroke-dasharray:none"
       id="path1909"
       sodipodi:type="arc"
       sodipodi:cx="122.55779"
       sodipodi:cy="430.92758"
       sodipodi:rx="47.513912"
       sodipodi:ry="46.084057"
       sodipodi:start="5.9104179"
       sodipodi:end="5.8780944"
       sodipodi:open="true"
       sodipodi:arc-type="arc"
       d="m 166.80859,414.14404 a 47.513912,46.084057 0 0 1 -26.58949,59.56566 47.513912,46.084057 0 0 1 -61.626674,-25.30715 47.513912,46.084057 0 0 1 25.593514,-59.97466 47.513912,46.084057 0 0 1 62.0403,24.33786" />
    <path
       style="fill:#0094ec;fill-opacity:1;stroke:#000300;stroke-width:0;stroke-linecap:round;stroke-miterlimit:4;stroke-dasharray:none"
       id="path1909-6"
       sodipodi:type="arc"
       sodipodi:cx="378.23373"
       sodipodi:cy="81.388779"
       sodipodi:rx="47.513912"
       sodipodi:ry="46.084057"
       sodipodi:start="5.9104179"
       sodipodi:end="5.8780944"
       sodipodi:open="true"
       sodipodi:arc-type="arc"
       d="m 422.48454,64.605234 a 47.513912,46.084057 0 0 1 -26.5895,59.565666 47.513912,46.084057 0 0 1 -61.62667,-25.30715 47.513912,46.084057 0 0 1 25.59351,-59.974667 47.513912,46.084057 0 0 1 62.0403,24.337862" />
    <path
       style="fill:#8414a8;fill-opacity:1;stroke:#009700;stroke-width:0;stroke-linecap:round;stroke-miterlimit:4;stroke-dasharray:none;stroke-opacity:1"
       id="path1909-7"
       sodipodi:type="arc"
       sodipodi:cx="369.36972"
       sodipodi:cy="410.81989"
       sodipodi:rx="47.513912"
       sodipodi:ry="46.084057"
       sodipodi:start="5.9104179"
       sodipodi:end="5.8780944"
       sodipodi:open="true"
       sodipodi:arc-type="arc"
       d="m 413.62052,394.03634 a 47.513912,46.084057 0 0 1 -26.58949,59.56566 47.513912,46.084057 0 0 1 -61.62668,-25.30714 47.513912,46.084057 0 0 1 25.59351,-59.97467 47.513912,46.084057 0 0 1 62.04031,24.33786" />
    <path
       style="fill:#3ea3ee;fill-opacity:1;stroke:#009700;stroke-width:0;stroke-linecap:round;stroke-miterlimit:4;stroke-dasharray:none;stroke-opacity:1"
       id="path1909-7-5"
       sodipodi:type="arc"
       sodipodi:cx="129.02847"
       sodipodi:cy="218.74094"
       sodipodi:rx="47.513912"
       sodipodi:ry="46.084057"
       sodipodi:start="5.9104179"
       sodipodi:end="5.8780944"
       sodipodi:open="true"
       sodipodi:arc-type="arc"
       d="m 173.27927,201.95739 a 47.513912,46.084057 0 0 1 -26.58949,59.56566 47.513912,46.084057 0 0 1 -61.626674,-25.30714 47.513912,46.084057 0 0 1 25.593514,-59.97467 47.513912,46.084057 0 0 1 62.0403,24.33786" />
    <path
       style="fill:#3928ac;fill-opacity:1;stroke:#009700;stroke-width:0;stroke-linecap:round;stroke-miterlimit:4;stroke-dasharray:none;stroke-opacity:1"
       id="path1909-7-8"
       sodipodi:type="arc"
       sodipodi:cx="434.92776"
       sodipodi:cy="241.3653"
       sodipodi:rx="47.513912"
       sodipodi:ry="46.084057"
       sodipodi:start="5.9104179"
       sodipodi:end="5.8780944"
       sodipodi:open="true"
       sodipodi:arc-type="arc"
       d="m 479.17857,224.58175 a 47.513912,46.084057 0 0 1 -26.5895,59.56566 47.513912,46.084057 0 0 1 -61.62667,-25.30714 47.513912,46.084057 0 0 1 25.59351,-59.97467 47.513912,46.084057 0 0 1 62.0403,24.33786" />
    <path
       style="fill:none;fill-opacity:1;stroke:#090909;stroke-width:23.50000091;stroke-linecap:butt;stroke-miterlimit:4.30000019;stroke-dasharray:70.50000272,23.50000091;stroke-dashoffset:192.70001964;stroke-opacity:1"
       id="path1909-7-8-1"
       sodipodi:type="arc"
       sodipodi:cx="255.75337"
       sodipodi:cy="253.28278"
       sodipodi:rx="241.5452"
       sodipodi:ry="243.32011"
       sodipodi:start="5.9104179"
       sodipodi:end="5.8780944"
       sodipodi:open="true"
       sodipodi:arc-type="arc"
       d="M 480.70998,164.66701 A 241.5452,243.32011 0 0 1 345.53768,479.16892 241.5452,243.32011 0 0 1 32.247821,345.54922 241.5452,243.32011 0 0 1 162.35686,28.887803 241.5452,243.32011 0 0 1 477.74949,157.38976" />
    <path
       style="fill:none;stroke:#7e0000;stroke-width:22.9941;stroke-linecap:butt;stroke-linejoin:miter;stroke-miterlimit:4;stroke-dasharray:none;stroke-opacity:1"
       d="M 180.35127,170.598 316.38643,302.47304"
       id="path971" />
    <path
       style="fill:none;stroke:#7e0000;stroke-width:22.9471;stroke-linecap:butt;stroke-linejoin:miter;stroke-miterlimit:4;stroke-dasharray:none;stroke-opacity:1"
       d="M 315.20353,170.43994 179.75566,302.34568"
       id="path971-5" />
  </g>
</svg>
