<?xml version="1.0" encoding="UTF-8" standalone="no"?>
<!-- Created with Inkscape (http://www.inkscape.org/) -->

<svg
   width="512mm"
   height="512mm"
   viewBox="0 0 512 512"
   version="1.1"
   id="svg5"
   inkscape:version="1.1.2 (0a00cf5339, 2022-02-04)"
   sodipodi:docname="plot-map.svg"
   inkscape:export-filename="/home/farrell/gitprojects/snipgenie/svg/bar.png"
   inkscape:export-xdpi="25.4"
   inkscape:export-ydpi="25.4"
   xmlns:inkscape="http://www.inkscape.org/namespaces/inkscape"
   xmlns:sodipodi="http://sodipodi.sourceforge.net/DTD/sodipodi-0.dtd"
   xmlns="http://www.w3.org/2000/svg"
   xmlns:svg="http://www.w3.org/2000/svg">
  <sodipodi:namedview
     id="namedview7"
     pagecolor="#ffffff"
     bordercolor="#999999"
     borderopacity="1"
     inkscape:pageshadow="0"
     inkscape:pageopacity="0"
     inkscape:pagecheckerboard="0"
     inkscape:document-units="mm"
     showgrid="false"
     width="209mm"
     inkscape:zoom="0.45795778"
     inkscape:cx="1108.1808"
     inkscape:cy="833.04623"
     inkscape:window-width="1862"
     inkscape:window-height="1016"
     inkscape:window-x="58"
     inkscape:window-y="27"
     inkscape:window-maximized="1"
     inkscape:current-layer="layer1" />
  <defs
     id="defs2">
    <inkscape:path-effect
       effect="simplify"
       id="path-effect997"
       is_visible="true"
       lpeversion="1"
       steps="1"
       threshold="0.000408163"
       smooth_angles="360"
       helper_size="0"
       simplify_individual_paths="false"
       simplify_just_coalesce="false" />
    <inkscape:path-effect
       effect="simplify"
       id="path-effect2902"
       is_visible="true"
       lpeversion="1"
       steps="1"
       threshold="0.000408163"
       smooth_angles="360"
       helper_size="0"
       simplify_individual_paths="false"
       simplify_just_coalesce="false" />
    <inkscape:path-effect
       effect="simplify"
       id="path-effect2865"
       is_visible="true"
       lpeversion="1"
       steps="1"
       threshold="0.000408163"
       smooth_angles="360"
       helper_size="0"
       simplify_individual_paths="false"
       simplify_just_coalesce="false" />
  </defs>
  <g
     inkscape:label="Layer 1"
     inkscape:groupmode="layer"
     id="layer1">
    <path
       style="fill:#007500;stroke:#0d0c0d;stroke-width:12.166;stroke-linecap:butt;stroke-linejoin:miter;stroke-miterlimit:4;stroke-dasharray:none;stroke-opacity:0.94735;fill-opacity:1"
       d="M 19.682336,87.758091 164.14937,31.008368 175.96397,26.367341 335.33339,94.639495 491.61494,33.24874 490.90226,421.66132 342.32299,483.46759 175.25128,414.77992 36.546219,450.42038 Z"
       id="path1212"
       sodipodi:nodetypes="cccccccccc" />
    <path
       style="fill:#009c00;fill-opacity:1;stroke:#0d0c0d;stroke-width:12.366;stroke-linecap:butt;stroke-linejoin:bevel;stroke-miterlimit:4;stroke-dasharray:none;stroke-opacity:0.94735"
       d="M 335.33339,94.639495 491.61494,33.248743 490.90226,421.66132 342.32299,483.46759 C 337.75671,193.5141 338.79174,297.83348 335.33339,94.639495 Z"
       id="path1212-0"
       sodipodi:nodetypes="ccccc" />
    <path
       style="fill:#00a900;fill-opacity:1;stroke:#0d0c0d;stroke-width:10.8656;stroke-linecap:butt;stroke-linejoin:bevel;stroke-miterlimit:4;stroke-dasharray:none;stroke-opacity:0.94735"
       d="M 19.682336,87.758091 175.96397,26.367341 175.25128,414.77992 26.671938,476.58619 C 22.105658,186.6327 23.140688,290.95208 19.682336,87.758091 Z"
       id="path1212-0-5"
       sodipodi:nodetypes="ccccc" />
    <ellipse
       style="fill:#ffcc00;stroke:#529796;stroke-width:0;stroke-linecap:round;stroke-linejoin:round;stroke-miterlimit:4;stroke-dasharray:none;stroke-opacity:0.907027"
       id="path1798"
       cx="126.71944"
       cy="104.69332"
       rx="13.616686"
       ry="28.374968" />
    <ellipse
       style="fill:#ffcc00;stroke:#529796;stroke-width:0;stroke-linecap:round;stroke-linejoin:round;stroke-miterlimit:4;stroke-dasharray:none;stroke-opacity:0.907027"
       id="path1798-0"
       cx="453.04059"
       cy="379.15686"
       rx="13.616686"
       ry="28.374968" />
    <ellipse
       style="fill:#e79b09;stroke:#529796;stroke-width:0;stroke-linecap:round;stroke-linejoin:round;stroke-miterlimit:4;stroke-dasharray:none;stroke-opacity:0.907027;fill-opacity:1"
       id="path1798-0-6"
       cx="276.06186"
       cy="281.48154"
       rx="13.616686"
       ry="28.374968" />
    <path
       style="fill:#a5d600;fill-opacity:1;stroke:#e2bb30;stroke-width:0;stroke-linecap:butt;stroke-linejoin:miter;stroke-miterlimit:4;stroke-dasharray:none;stroke-opacity:1"
       d="m 28.81394,223.15088 c 34.469877,-46.84029 38.403122,-10.08883 61.444329,0.14576 15.060111,43.09564 40.863961,32.07688 20.435861,54.1171 -31.326772,32.91445 -25.01257,38.39867 -19.8229,56.4367 21.1085,21.34847 6.955522,-15.96871 47.14156,14.44136 v 0 l 15.22226,33.19557 2.974,34.77155 -123.890096,52.74155"
       id="path1278"
       sodipodi:nodetypes="ccccccccc" />
    <path
       style="fill:#a5d600;fill-opacity:1;stroke:#e2bb30;stroke-width:0;stroke-linecap:butt;stroke-linejoin:miter;stroke-miterlimit:4;stroke-dasharray:none;stroke-opacity:1"
       d="m 485.53995,301.69507 c -29.86445,49.61161 -31.84291,11.88781 -51.80565,1.04771 -13.04796,-45.6454 -35.40423,-33.97472 -17.70547,-57.31895 27.14129,-34.86184 21.67071,-40.67055 17.17441,-59.77579 -18.28824,-22.61157 -6.0262,16.9135 -40.8431,-15.2958 v 0 l -13.18845,-35.15959 14.59973,-57.568453 91.54396,-33.785671"
       id="path1278-4"
       sodipodi:nodetypes="ccccccccc" />
    <path
       style="fill:#5ea800;fill-opacity:1;stroke:#b0bb30;stroke-width:0;stroke-linecap:butt;stroke-linejoin:miter;stroke-miterlimit:4;stroke-dasharray:none;stroke-opacity:1"
       d="m 322.86866,95.341064 c -54.03415,42.904046 4.70408,103.172506 -6.38826,123.708716 -27.43234,-3.53849 -28.2479,21.10712 -46.05139,-7.9146 -10.87932,-49.7384 -15.4045,-45.35904 -26.62458,-48.06337 -16.79893,13.23579 11.95509,39.45765 -8.77743,46.63771 -11.53735,3.99561 20.65419,44.67957 5.15591,53.98291 -12.01572,7.21283 -25.7328,-12.74578 -35.05734,-23.20789 -10.95742,-12.2942 -22.37099,-44.05055 -22.37099,-44.05055 L 182.65224,35.803005"
       id="path1278-6"
       sodipodi:nodetypes="ccccsaacc" />
  </g>
</svg>
