<?xml version="1.0" encoding="UTF-8" standalone="no"?>
<!-- Created with Inkscape (http://www.inkscape.org/) -->

<svg
   width="512mm"
   height="512mm"
   viewBox="0 0 512 512"
   version="1.1"
   id="svg5"
   xmlns="http://www.w3.org/2000/svg"
   xmlns:svg="http://www.w3.org/2000/svg">
  <defs
     id="defs2" />
  <g
     id="layer1">
    <path
       style="fill:#2f4a38;fill-opacity:1;stroke:#315234;stroke-width:22.9059;stroke-linecap:round;stroke-linejoin:miter;stroke-dasharray:none;stroke-opacity:1"
       d="M 256.27182,97.381191 21.556534,342.94378"
       id="path1122" />
    <path
       style="fill:#003ab2;fill-opacity:1;stroke:#003faf;stroke-width:21.1084;stroke-linecap:round;stroke-linejoin:miter;stroke-dasharray:none;stroke-opacity:1"
       d="M 446.88038,228.70356 357.51662,67.361503"
       id="path1122-2" />
    <path
       style="fill:#805e48;fill-opacity:1;stroke:#67282c;stroke-width:22.9059;stroke-linecap:round;stroke-linejoin:miter;stroke-dasharray:none;stroke-opacity:1"
       d="M 278.14868,370.67555 49.45537,457.96061"
       id="path1122-3" />
    <path
       style="fill:#365b37;fill-opacity:1;stroke:#3b5a3e;stroke-width:22.1;stroke-linecap:round;stroke-linejoin:round;stroke-dasharray:none;stroke-opacity:1;stop-color:#000000"
       id="path4189"
       d="m 67.502248,58.33757 1.154259,99.59637 1.154259,99.59638 -86.830118,-48.79857 -86.830118,-48.79857 85.675855,-50.7978 z"
       transform="matrix(0.53564056,-0.07640342,-0.3701117,0.71448665,296.95806,-4.7268702)" />
    <path
       style="fill:#003a9b;fill-opacity:1;stroke:#003f9d;stroke-width:22.1;stroke-linecap:round;stroke-linejoin:round;stroke-dasharray:none;stroke-opacity:1;stop-color:#000000"
       id="path4189-3"
       d="m 67.502248,58.33757 1.154259,99.59637 1.154259,99.59638 -86.830118,-48.79857 -86.830118,-48.79857 85.675855,-50.7978 z"
       transform="matrix(-0.07365855,0.51889461,-0.60593646,-0.54322368,534.71025,290.04429)" />
    <path
       style="fill:#652529;fill-opacity:1;stroke:#692e30;stroke-width:22.1;stroke-linecap:round;stroke-linejoin:round;stroke-dasharray:none;stroke-opacity:1;stop-color:#000000"
       id="path4189-6"
       d="m 67.502248,58.33757 1.154259,99.59637 1.154259,99.59638 -86.830118,-48.79857 -86.830118,-48.79857 85.675855,-50.7978 z"
       transform="matrix(0.51876342,0.14996788,-0.64780933,0.49594792,391.96629,282.29194)" />
  </g>
</svg>
