<?xml version="1.0" encoding="UTF-8" standalone="no"?>
<!-- Uploaded to: SVG Repo, www.svgrepo.com, Generator: SVG Repo Mixer Tools -->

<svg
   fill="#000000"
   version="1.1"
   id="Capa_1"
   viewBox="0 0 60 60"
   xml:space="preserve"
   sodipodi:docname="report.svg"
   inkscape:version="1.1.2 (0a00cf5339, 2022-02-04)"
   xmlns:inkscape="http://www.inkscape.org/namespaces/inkscape"
   xmlns:sodipodi="http://sodipodi.sourceforge.net/DTD/sodipodi-0.dtd"
   xmlns="http://www.w3.org/2000/svg"
   xmlns:svg="http://www.w3.org/2000/svg"><defs
   id="defs43">
		
		
		
		
		
		
		
		
		
		
		
		
		
		
		
		
		
	</defs><sodipodi:namedview
   id="namedview41"
   pagecolor="#ffffff"
   bordercolor="#999999"
   borderopacity="1"
   inkscape:pageshadow="0"
   inkscape:pageopacity="0"
   inkscape:pagecheckerboard="0"
   showgrid="false"
   inkscape:zoom="12.116667"
   inkscape:cx="27.482805"
   inkscape:cy="29.999999"
   inkscape:window-width="2560"
   inkscape:window-height="1300"
   inkscape:window-x="0"
   inkscape:window-y="0"
   inkscape:window-maximized="1"
   inkscape:current-layer="Capa_1" />
<path
   style="fill:#eaeceb;stroke:none;stroke-width:1px;stroke-linecap:butt;stroke-linejoin:miter;stroke-opacity:1;fill-opacity:1"
   d="m 11.5,2 v 56 h 33 l 10,-10 V 2 h -43"
   id="path872" /><path
   style="fill:#1dafee;stroke:none;stroke-width:1px;stroke-linecap:butt;stroke-linejoin:miter;stroke-opacity:1;fill-opacity:1"
   d="m 5.5,36 h 16 V 18 h -4 l -0.01926,7 H 11.5 c -0.666667,1.666667 -2.1366741,5.341685 -2,5 h -4 v 6"
   id="path1002"
   sodipodi:nodetypes="ccccccccc" /><g
   id="g38">
	<path
   d="M 56.5,49 V 49 1 c 0,-0.6 -0.4,-1 -1,-1 h -45 c -0.6,0 -1,0.4 -1,1 v 14 h 2 V 2 h 43 v 46 h -9 c -0.6,0 -1,0.4 -1,1 v 9 h -33 V 43 h -2 v 16 c 0,0.6 0.4,1 1,1 h 35 c 0.3,0 0.5,-0.1 0.7,-0.3 l 10,-10 c 0.1,-0.1 0.1,-0.2 0.2,-0.3 v -0.1 c 0.1,-0.1 0.1,-0.2 0.1,-0.3 z m -10,1 h 6.6 l -3.3,3.3 -3.3,3.3 z"
   id="path2" /><path
   d="m 16.5,38 h 6 4 v -2 h -3 V 17 c 0,-0.6 -0.4,-1 -1,-1 h -6 c -0.6,0 -1,0.4 -1,1 v 6 h -5 c -0.6,0 -1,0.4 -1,1 v 4 h -5 c -0.6,0 -1,0.4 -1,1 v 8 c 0,0.6 0.4,1 1,1 h 6 z m 1,-20 h 4 v 18 h -4 V 24 Z m -6,7 h 4 v 11 h -4 v -7 z m -6,5 h 4 v 6 h -4 z"
   id="path4"
   style="fill:#000000;fill-opacity:1" /><rect
   x="28.5"
   y="28"
   width="21"
   height="2"
   id="rect8" /><rect
   x="28.5"
   y="33"
   width="21"
   height="2"
   id="rect10" /><rect
   x="28.5"
   y="38"
   width="21"
   height="2"
   id="rect12" /><rect
   x="14.5"
   y="6"
   width="6"
   height="2"
   id="rect14" /><rect
   x="14.5"
   y="11"
   width="9"
   height="2"
   id="rect16" /><rect
   x="14.5"
   y="43"
   width="7"
   height="2"
   id="rect18" /><rect
   x="24.5"
   y="43"
   width="7"
   height="2"
   id="rect20" /><rect
   x="34.5"
   y="43"
   width="7"
   height="2"
   id="rect22" /><rect
   x="14.5"
   y="48"
   width="7"
   height="2"
   id="rect24" /><rect
   x="24.5"
   y="48"
   width="7"
   height="2"
   id="rect26" /><rect
   x="34.5"
   y="48"
   width="7"
   height="2"
   id="rect28" /><rect
   x="14.5"
   y="53"
   width="7"
   height="2"
   id="rect30" /><rect
   x="24.5"
   y="53"
   width="7"
   height="2"
   id="rect32" /><rect
   x="34.5"
   y="53"
   width="7"
   height="2"
   id="rect34" />
<rect
   style="fill:#91e29f;stroke:#000000;stroke-width:1.7;stroke-linecap:round;stroke-linejoin:round;paint-order:markers fill stroke;stroke-miterlimit:4;stroke-dasharray:none;fill-opacity:1"
   id="rect1023"
   width="22.943602"
   height="18.651995"
   x="27.647867"
   y="5.4470425" /><rect
   style="fill:#58e2cd;fill-opacity:1;stroke:#000000;stroke-width:1.54256;stroke-linecap:round;stroke-linejoin:round;stroke-miterlimit:4;stroke-dasharray:none;paint-order:markers fill stroke"
   id="rect1023-0"
   width="22.9436"
   height="5.849791"
   x="27.647867"
   y="5.4470425" /><rect
   style="fill:#d5e2cd;fill-opacity:1;stroke:#000000;stroke-width:1.603;stroke-linecap:round;stroke-linejoin:round;stroke-miterlimit:4;stroke-dasharray:none;paint-order:markers fill stroke"
   id="rect1023-0-4"
   width="11.276319"
   height="18.116486"
   x="27.828142"
   y="5.6273127" /></g>
</svg>
