<?xml version="1.0" encoding="iso-8859-1"?>
<!-- Generator: Adobe Illustrator 19.0.0, SVG Export Plug-In . SVG Version: 6.00 Build 0)  -->
<svg version="1.1" id="Layer_1" xmlns="http://www.w3.org/2000/svg" xmlns:xlink="http://www.w3.org/1999/xlink" x="0px" y="0px"
	 viewBox="0 0 306.365 306.365" style="enable-background:new 0 0 306.365 306.365;" xml:space="preserve">
<g>
	<g>
		<g id="XMLID_21_">
			<g>
				<path style="fill:#F47C6D;" d="M187.047,39.41c1.859,4.554,2.85,9.45,2.85,14.5c0,10.131-3.935,19.643-11.092,26.8
					l-27.048,27.048l-25.56-26.088l-0.991-0.96c-14.748-14.779-14.748-38.79,0.031-53.569c7.157-7.157,16.669-11.092,26.769-11.092
					c10.131,0,19.643,3.935,26.8,11.092C182.4,30.704,185.157,34.886,187.047,39.41z M176.637,53.879
					c0-13.508-10.968-24.476-24.476-24.476s-24.476,10.968-24.476,24.476s10.968,24.476,24.476,24.476
					S176.637,67.387,176.637,53.879z"/>
				<path style="fill:#C5CBCF;" d="M180.262,101.933V287.27c-18.621-7.808-37.21-15.615-55.831-23.423V102.831l18.528,18.868
					c2.262,2.355,5.422,3.687,8.768,3.718c3.222,0,6.382-1.332,8.644-3.594L180.262,101.933z"/>
				<path style="fill:#2D213F;" d="M268.159,44.181v224.592c0,3.625-2.417,5.949-5.515,7.25
					c-23.64,9.914-47.248,19.829-70.857,29.743c-1.022,0.434-1.952,0.589-2.788,0.589c-0.093,0-0.155,0-0.217,0
					c-0.093,0-0.155,0-0.248,0c-0.868,0-1.766-0.186-2.757-0.589c-23.02-9.667-46.009-19.302-69.029-28.969
					c-22.989,9.667-46.009,19.302-69.029,28.969c-3.563,1.487-6.32,0.031-7.777-2.448c-1.053-1.177-1.735-2.757-1.735-4.802V73.924
					c0-3.625,2.417-5.949,5.515-7.25c18.497-7.746,36.962-15.522,55.428-23.268c2.014-10.131,6.909-19.798,14.748-27.605
					C124.059,5.608,137.599,0,152.006,0c7.219,0,14.19,1.394,20.665,4.09c6.444,2.664,12.393,6.599,17.474,11.711
					c10.193,10.162,15.801,23.702,15.801,38.109c0,1.766-0.093,3.501-0.248,5.236c17.629-7.405,35.289-14.81,52.949-22.214
					C263.264,34.979,268.159,39.813,268.159,44.181z M253.102,263.847V55.428c-17.536,7.374-35.072,14.717-52.639,22.091
					c-0.929,1.952-1.983,3.842-3.16,5.67V287.27C215.892,279.463,234.512,271.655,253.102,263.847z M189.897,53.91
					c0-5.05-0.991-9.945-2.85-14.5c-1.89-4.523-4.647-8.706-8.241-12.269c-7.157-7.157-16.669-11.092-26.8-11.092
					c-10.1,0-19.612,3.935-26.769,11.092c-14.779,14.779-14.779,38.79-0.031,53.569l0.991,0.96l25.561,26.087l27.048-27.048
					C185.962,73.553,189.897,64.041,189.897,53.91z M180.262,287.27V101.933l-19.891,19.891c-2.262,2.262-5.422,3.594-8.644,3.594
					c-3.346-0.031-6.506-1.363-8.768-3.718l-18.528-18.868v161.016C143.052,271.655,161.641,279.463,180.262,287.27z
					 M109.064,263.847V86.441c-6.011-7.932-9.543-17.133-10.596-26.583C83.41,66.21,68.322,72.53,53.264,78.851v208.42
					C71.854,279.463,90.474,271.655,109.064,263.847z"/>
				<path style="fill:#EAEEEF;" d="M253.102,55.428v208.42c-18.59,7.808-37.21,15.615-55.8,23.423V83.188
					c1.177-1.828,2.231-3.718,3.16-5.67C218.029,70.144,235.566,62.802,253.102,55.428z"/>
				<path style="fill:#2D213F;" d="M152.161,29.402c13.508,0,24.476,10.968,24.476,24.476s-10.968,24.476-24.476,24.476
					s-24.476-10.968-24.476-24.476S138.652,29.402,152.161,29.402z M160.588,53.879c0-4.647-3.78-8.427-8.427-8.427
					s-8.427,3.78-8.427,8.427s3.78,8.427,8.427,8.427C156.808,62.306,160.588,58.526,160.588,53.879z"/>
				<path style="fill:#EAEEEF;" d="M109.064,86.441v177.406c-18.59,7.808-37.21,15.615-55.8,23.423V78.851
					C68.322,72.53,83.41,66.21,98.468,59.858C99.521,69.308,103.053,78.51,109.064,86.441z"/>
			</g>
		</g>
	</g>
</g>
<g>
</g>
<g>
</g>
<g>
</g>
<g>
</g>
<g>
</g>
<g>
</g>
<g>
</g>
<g>
</g>
<g>
</g>
<g>
</g>
<g>
</g>
<g>
</g>
<g>
</g>
<g>
</g>
<g>
</g>
</svg>
