<?xml version="1.0" encoding="iso-8859-1"?>
<!-- Generator: Adobe Illustrator 19.0.0, SVG Export Plug-In . SVG Version: 6.00 Build 0)  -->
<svg version="1.1" id="Layer_1" xmlns="http://www.w3.org/2000/svg" xmlns:xlink="http://www.w3.org/1999/xlink" x="0px" y="0px"
	 viewBox="0 0 494.4 494.4" style="enable-background:new 0 0 494.4 494.4;" xml:space="preserve">
<path style="fill:#13A289;" d="M14,209.8c4.4,4.4,13.2,6.8,19.6,6.8h135.6c12.8,0,19.2-10,19.2-23.2v-23.6
	c0-13.2-6.4-25.6-19.2-25.6h-44.8c32.4-32,79.2-58.4,130-58.4c74,0,140,48.4,164.4,119.6c6.4,18.4,26.4,28.4,44.4,22
	s27.6-26.8,21.2-45.2c-34-99.6-130.4-166.4-234-166.4C183.2,15.8,124,43.4,72,91V55.8C72,42.6,69.2,29,56.4,29H33.6
	C20.8,29,4,43,4,55.8v138C4.4,199.8,10,205.4,14,209.8z"/>
<path style="fill:#61C2AB;" d="M254.8,35.8c55.2,0,106.8,20.8,146.8,55.6c0,0,12.8,11.2,22,22c18.4,22,33.6,47.2,43.2,75.6
	c1.2,4,1.2,8.4-0.8,12c-1.6,4-4.8,6.8-8.8,8c-1.6,0.4-3.2,0.8-5.2,0.8c-6.4,0-12.4-4.4-14.8-10.4c-27.2-79.2-100.4-132-182.8-132
	c-55.2,0-108,24-144.8,66c-5.2,6-6.4,13.2-3.2,20.4c3.2,7.2,10,10.8,17.6,10.8h44.8c2,0-0.8,3.6-0.8,5.6v23.6c0,1.2,2,1.6,1.2,2.4
	c-0.4,0.4,0.8,0.8-0.4,0.8H33.2c-1.2,0-4.8,0-5.6-0.8c-0.4-0.4-4-1.2-4-2.4v-138c0-2,7.2-6.8,9.6-6.8H52c2,0-0.4,4.8-0.4,6.8V91
	c0,8,8.8,15.2,16.4,18.4c2.4,0.8,6.8,1.6,9.2,1.6c5.2,0,11.2-2,14.8-6c42.4-44.4,100-69.2,161.6-69.2"/>
<path d="M452,233.4c-5.6,0-11.2-1.2-16.4-4c-9.6-4.8-16.8-12.8-20.4-22.8c-24-70-88.4-116.8-160.8-116.8c-40.8,0-84.4,18.4-120,50.4
	h34.8c13.6,0,23.2,12,23.2,29.6v23.6c0,16.4-9.2,27.2-23.2,27.2H33.6c-7.2,0-17.2-2.8-22.4-8l-0.4-0.4C6.4,207.8,0,201.4,0,193.4
	V49.8c0-14.4,12-25.2,27.6-25.2h26C68,24.6,76,33.4,76,49.8v32.4c53.6-46.4,112.4-70,174.4-70c106,0,203.6,69.6,238,169.2
	c7.2,20.4-3.6,43.2-24,50.4C460.8,232.6,456.4,233.4,452,233.4z M254.8,82.2c75.6,0,143.2,49.2,168.4,122c2.8,8,8.4,14.8,16,18.4
	c7.2,3.6,15.6,4,23.2,1.2c16-5.6,24.4-23.6,18.8-40C448,87.4,353.6,20.2,250.8,20.2c-62.8,0-122,24.8-176,74
	c-1.2,1.2-2.8,1.2-4.4,0.8c-1.6-0.8-2.4-2-2.4-3.6V50.2C68,35,60,33,53.6,33h-26C18,33,8,39,8,50.2v143.6c0,4.8,4.8,9.6,8.4,13.2
	l0.4,0.4l0,0C20,210.6,28,213,33.6,213h135.6c13.6,0,15.2-13.2,15.2-19.2v-23.6c0-10.8-4.8-21.6-15.2-21.6h-44.8
	c-1.6,0-3.2-0.8-3.6-2.4c-0.8-1.6-0.4-3.2,0.8-4.4C160.4,103.8,208.8,82.2,254.8,82.2z"/>
<path d="M452,213.8c-8.4,0-15.6-5.2-18.4-13.2C407.2,123.4,335.2,71,254.8,71c-54.4,0-106,23.6-141.6,64.8c-4,4.8-4.8,10.4-2.4,16
	c2.4,5.2,7.6,8.4,14,8.4h39.6c4.4,0,8,4,8,8.4v24.8c0,3.6-3.2,7.2-8,7.2H34c-4.8,0-6.8-0.8-7.6-1.6H26c-1.6-0.4-5.2-2-5.2-5.6V51.8
	c0-4.4,2.8-7.2,7.6-7.2h22c4,0,6.8,3.2,6.8,7.6V91c0,5.6,6.8,12,13.6,14.4c1.6,0.8,5.6,1.2,8,1.2c4.4,0,9.2-2,12-4.8
	C134,56.6,192.4,31.4,255.2,31.4c0,0,0,0,0.4,0c0,0,0,0,0.4,0c54.8,0,108,20,149.6,56.8c1.6,1.6,2,4,0.4,5.6s-4,2-5.6,0.4
	C360.4,59,309.2,39.4,256,39.4c0,0,0,0-0.4,0c0,0,0,0-0.4,0c-60.8,0-116.8,24-158.4,67.6c-4,4.4-11.2,7.2-18,7.2
	c-2.8,0-7.6-0.4-10.8-1.6c-8.8-3.6-18.8-12-18.8-22V52.2h-20V191c0.8,0.4,1.2,0.4,2,0.8c0.8,0,2.4,0.4,3.6,0.4h130.4l0,0v-23.6
	c0,0,0-0.4-0.4-0.4h-39.6c-9.6,0-17.6-5.2-21.2-13.2c-3.6-8.4-2.4-17.6,4-24.8c37.2-42.8,91.2-67.6,147.6-67.6
	c84,0,158.8,54.4,186.4,134.8c2,6,8.4,9.2,14.4,7.2c2.8-1.2,5.2-3.2,6.4-6c1.2-2.8,1.6-6,0.4-9.2c-9.6-27.6-23.6-52.4-42.4-74
	c-1.6-1.6-1.2-4,0.4-5.6c1.6-1.6,4-1.2,5.6,0.4c19.6,22.4,34.4,48.4,44,76.8c1.6,4.8,1.6,10.4-0.8,15.2c-2.4,4.8-6,8.4-11.2,10
	C456.4,213.4,454,213.8,452,213.8z"/>
<path style="fill:#13A289;" d="M480,284.2c-4.4-4.4-13.2-6.8-19.6-6.8H324.8c-12.8,0-19.2,10-19.2,23.2v23.6
	c0,13.2,6.4,25.6,19.2,25.6h44.8c-32.4,32-79.2,58.4-130,58.4c-74,0-140-48.4-164.4-119.6c-6.4-18.4-26.4-28.4-44.4-22
	S3.2,293.4,9.6,311.8c34,99.6,130.4,166.4,234,166.4c67.2,0,126.4-27.6,178.4-75.2v35.2c0,13.2,2.8,26.8,15.6,26.8h22.8
	c12.8,0,29.6-14,29.6-26.8v-138C490,294.2,484.4,288.6,480,284.2z"/>
<path style="fill:#61C2AB;" d="M239.6,458.2c-55.2,0-106.8-20.8-146.8-55.6c0,0-12.8-11.2-22-22c-18.4-22-33.6-47.2-43.2-75.6
	c-1.2-4-1.2-8.4,0.8-12c1.6-4,4.8-6.8,8.8-8c1.6-0.4,3.2-0.8,5.2-0.8c6.4,0,12.4,4.4,14.8,10.4c27.2,79.2,100.4,132,182.8,132
	c55.2,0,108-24,144.8-66c5.2-6,6.4-13.2,3.2-20.4c-3.2-7.2-10-10.8-17.6-10.8h-44.8c-2,0,0.8-3.6,0.8-5.6v-23.6c0-1.2-2-1.6-1.2-2.4
	c0.4-0.4-0.8-0.8,0.4-0.8h135.6c1.2,0,4.8,0,5.6,0.8c0.4,0.4,4,1.2,4,2.4v138c0,2-7.2,6.8-9.6,6.8h-18.8c-2,0,0.4-4.8,0.4-6.8V403
	c0-8-8.8-15.2-16.4-18.4c-2.4-0.8-6.8-1.6-9.2-1.6c-5.2,0-11.2,2-14.8,6c-42.4,44.4-100,69.2-161.6,69.2"/>
<path d="M243.6,482.2c-106,0-203.6-69.6-238-169.2c-7.2-20.4,3.6-43.2,24-50.4c9.6-3.6,20-2.8,29.2,1.6C68.4,269,75.6,277,79.2,287
	c24,70,88.4,116.8,160.8,116.8c40.8,0,84.4-18.4,120-50.4h-34.8c-13.6,0-23.2-12-23.2-29.6v-23.6c0-16.4,9.2-27.2,23.2-27.2h135.6
	c7.2,0,17.2,2.8,22.4,8l0.4,0.4c4.4,4.4,10.8,10.8,10.8,18.8v143.6c0,14.4-12,25.2-27.6,25.2h-26c-14.4,0-22.4-8.8-22.4-25.2v-32.4
	C364.4,458.6,306,482.2,243.6,482.2z M42.4,268.6c-3.2,0-6.8,0.4-10,1.6c-16,5.6-24.4,23.6-18.8,40c33.2,96.4,128,163.6,230.4,163.6
	c62.8,0,122-24.8,176-74c1.2-1.2,2.8-1.2,4.4-0.8c1.6,0.8,2.4,2,2.4,3.6v41.2c0,15.2,7.6,17.2,14.4,17.2h26c9.6,0,19.6-6,19.6-17.2
	V300.2c0-4.8-4.8-9.6-8.4-13.2l-0.4-0.4l0,0c-3.2-3.2-11.2-5.6-16.8-5.6H325.6c-13.6,0-15.2,13.2-15.2,19.2v23.6
	c0,10.8,4.8,21.6,15.2,21.6h44.8c1.6,0,3.2,0.8,3.6,2.4c0.8,1.6,0.4,3.2-0.8,4.4c-38.4,38-87.2,59.6-132.8,59.6
	c-75.6,0-143.2-49.2-168.4-122c-2.8-8-8.4-14.8-16-18.4C51.2,269.4,46.8,268.6,42.4,268.6z"/>
<path d="M239.6,462.2c-54.8,0-108-20-149.6-56.8c-1.6-1.6-2-4-0.4-5.6s4-2,5.6-0.4c40,35.2,91.2,54.8,144.4,54.8c0,0,0,0,0.4,0
	c0,0,0,0,0.4,0c60.8,0,116.8-24,158.4-67.6c4-4.4,11.2-7.2,18-7.2c2.8,0,7.6,0.4,10.8,1.6c8.8,3.6,18.8,12,18.8,22v38.4h20V302.6
	c-0.8-0.4-1.2-0.4-2-0.8c-0.8,0-2.4-0.4-3.6-0.4H330.4l0,0V325c0,0,0,0.4,0.4,0.4h39.6c9.6,0,17.6,5.2,21.2,13.2
	c3.6,8.4,2.4,17.6-4,24.8C350.4,406.2,296.4,431,240,431c-84,0-158.8-54.4-186.4-134.8c-2-6-8.4-9.2-14.4-7.2
	c-2.8,1.2-5.2,3.2-6.4,6s-1.6,6-0.4,9.2c9.6,27.6,23.6,52.4,42.4,74c1.6,1.6,1.2,4-0.4,5.6c-1.6,1.6-4.4,1.2-5.6-0.4
	c-19.6-22.4-34.4-48.4-44-76.8c-1.6-4.8-1.6-10.4,0.8-15.2c2.4-4.8,6.4-8.4,11.2-10c2-0.8,4.4-1.2,6.4-1.2c8.4,0,15.6,5.2,18.4,13.2
	C88,371,160,423,240.4,423c54.4,0,106-23.6,141.6-64.8c4-4.8,4.8-10.4,2.4-16c-2.4-5.2-7.6-8.4-14-8.4h-39.6c-4.4,0-8-4-8-8.4v-24.8
	c0-3.6,3.2-7.2,8-7.2h130.4c4.8,0,6.8,0.8,7.6,1.6h0.4c1.6,0.4,5.2,2,5.2,5.6v141.6c0,4.4-2.8,7.2-7.6,7.2h-22c-4,0-6.8-3.2-6.8-7.6
	V403c0-5.6-6.8-12-13.6-14.4c-1.6-0.8-5.6-1.2-8-1.2c-4.4,0-9.2,2-12,4.8c-43.2,45.2-101.6,70.4-164.4,70.4
	C240.4,462.2,240,462.2,239.6,462.2C240,462.2,240,462.2,239.6,462.2z"/>
<g>
</g>
<g>
</g>
<g>
</g>
<g>
</g>
<g>
</g>
<g>
</g>
<g>
</g>
<g>
</g>
<g>
</g>
<g>
</g>
<g>
</g>
<g>
</g>
<g>
</g>
<g>
</g>
<g>
</g>
</svg>
